<svg width="17" height="17" viewBox="0 0 17 17" fill="currentColor" xmlns="http://www.w3.org/2000/svg">
<path id="Vector" d="M7.1875 15.3125C7.1875 15.6606 7.32578 15.9944 7.57192 16.2406C7.81806 16.4867 8.1519 16.625 8.5 16.625C8.8481 16.625 9.18194 16.4867 9.42808 16.2406C9.67422 15.9944 9.8125 15.6606 9.8125 15.3125V9.625H15.5C15.8481 9.625 16.1819 9.48672 16.4281 9.24058C16.6742 8.99444 16.8125 8.6606 16.8125 8.3125C16.8125 7.9644 16.6742 7.63056 16.4281 7.38442C16.1819 7.13828 15.8481 7 15.5 7H9.8125V1.3125C9.8125 0.964403 9.67422 0.630564 9.42808 0.384422C9.18194 0.138281 8.8481 0 8.5 0C8.1519 0 7.81806 0.138281 7.57192 0.384422C7.32578 0.630564 7.1875 0.964403 7.1875 1.3125V7H1.5C1.1519 7 0.818064 7.13828 0.571922 7.38442C0.325781 7.63056 0.1875 7.9644 0.1875 8.3125C0.1875 8.6606 0.325781 8.99444 0.571922 9.24058C0.818064 9.48672 1.1519 9.625 1.5 9.625H7.1875V15.3125Z" fill="currentColor"/>
</svg>
