<svg width="16" height="16" viewBox="0 0 16 16" fill="currentColor" xmlns="http://www.w3.org/2000/svg">
<path fill-rule="evenodd" clip-rule="evenodd" d="M0.498047 8.00012C0.498047 3.85787 3.8558 0.500122 7.99805 0.500122C12.1403 0.500122 15.498 3.85787 15.498 8.00012C15.498 12.1424 12.1403 15.5001 7.99805 15.5001C3.8558 15.5001 0.498047 12.1424 0.498047 8.00012ZM7.99805 2.00012C6.40675 2.00012 4.88062 2.63226 3.75541 3.75748C2.63019 4.8827 1.99805 6.40882 1.99805 8.00012C1.99805 9.59142 2.63019 11.1175 3.75541 12.2428C4.88062 13.368 6.40675 14.0001 7.99805 14.0001C9.58935 14.0001 11.1155 13.368 12.2407 12.2428C13.3659 11.1175 13.998 9.59142 13.998 8.00012C13.998 6.40882 13.3659 4.8827 12.2407 3.75748C11.1155 2.63226 9.58935 2.00012 7.99805 2.00012Z" fill="currentColor"/>
<path fill-rule="evenodd" clip-rule="evenodd" d="M8.74805 4.25C8.74805 4.05109 8.66903 3.86032 8.52838 3.71967C8.38772 3.57902 8.19696 3.5 7.99805 3.5C7.79913 3.5 7.60837 3.57902 7.46772 3.71967C7.32706 3.86032 7.24805 4.05109 7.24805 4.25V7.25H4.24805C4.04913 7.25 3.85837 7.32902 3.71772 7.46967C3.57706 7.61032 3.49805 7.80109 3.49805 8C3.49805 8.19891 3.57706 8.38968 3.71772 8.53033C3.85837 8.67098 4.04913 8.75 4.24805 8.75H7.24805V11.75C7.24805 11.9489 7.32706 12.1397 7.46772 12.2803C7.60837 12.421 7.79913 12.5 7.99805 12.5C8.19696 12.5 8.38772 12.421 8.52838 12.2803C8.66903 12.1397 8.74805 11.9489 8.74805 11.75V8.75H11.748C11.947 8.75 12.1377 8.67098 12.2784 8.53033C12.419 8.38968 12.498 8.19891 12.498 8C12.498 7.80109 12.419 7.61032 12.2784 7.46967C12.1377 7.32902 11.947 7.25 11.748 7.25H8.74805V4.25Z" fill="currentColor"/>
</svg>
