<svg width="20" height="15" viewBox="0 0 20 15" fill="none" xmlns="http://www.w3.org/2000/svg">
<path d="M10.9401 0.397381C11.2034 0.142938 11.5604 0 11.9326 0C12.3049 0 12.6619 0.142938 12.9251 0.397381L19.2424 6.50496C19.5056 6.75948 19.6534 7.10464 19.6534 7.46453C19.6534 7.82442 19.5056 8.16958 19.2424 8.4241L12.9251 14.5317C12.6604 14.7789 12.3058 14.9157 11.9377 14.9126C11.5696 14.9095 11.2175 14.7668 10.9572 14.5151C10.6969 14.2635 10.5493 13.9231 10.5461 13.5672C10.5429 13.2114 10.6844 12.8685 10.9401 12.6125L14.7403 8.82177H1.40384C1.03152 8.82177 0.674445 8.67878 0.411175 8.42424C0.147904 8.16971 0 7.82449 0 7.46453C0 7.10457 0.147904 6.75935 0.411175 6.50482C0.674445 6.25029 1.03152 6.10729 1.40384 6.10729H14.7403L10.9401 2.31652C10.6769 2.062 10.5291 1.71684 10.5291 1.35695C10.5291 0.997059 10.6769 0.651902 10.9401 0.397381Z" fill="black"/>
</svg>
