<svg width="14" height="18" viewBox="0 0 14 18" fill="none" xmlns="http://www.w3.org/2000/svg">
<path d="M8.75 0H1.75C0.7875 0 0.0087502 0.7875 0.0087502 1.75L0 15.75C0 16.7125 0.77875 17.5 1.74125 17.5H12.25C13.2125 17.5 14 16.7125 14 15.75V5.25L8.75 0ZM10.5 9.625H7.875V12.9062C7.875 13.9913 6.99125 14.875 5.90625 14.875C4.82125 14.875 3.9375 13.9913 3.9375 12.9062C3.9375 11.8212 4.82125 10.9375 5.90625 10.9375C6.30875 10.9375 6.685 11.06 7 11.27V7.875H10.5V9.625ZM7.875 6.125V1.3125L12.6875 6.125H7.875Z" fill="black"/>
</svg>
