<svg width="24" height="24" viewBox="0 0 24 24" fill="none" xmlns="http://www.w3.org/2000/svg">
<g id="solar:copy-outline">
<path id="Vector" fill-rule="evenodd" clip-rule="evenodd" d="M14.949 1.7417H11.0941C9.3473 1.7417 7.96352 1.7417 6.88102 1.88711C5.76715 2.03727 4.86522 2.35281 4.15337 3.06371C3.44247 3.77556 3.12693 4.67749 2.97677 5.79135C2.83136 6.87481 2.83136 8.25764 2.83136 10.0045V15.7601C2.83138 16.6092 3.13448 17.4304 3.68609 18.0759C4.2377 18.7215 5.00161 19.1489 5.84033 19.2813C5.97053 20.0074 6.22239 20.6271 6.7261 21.1318C7.29824 21.7039 8.01864 21.9491 8.874 22.0651C9.698 22.1753 10.7463 22.1753 12.0455 22.1753H15.0012C16.3004 22.1753 17.3487 22.1753 18.1727 22.0651C19.0281 21.9491 19.7485 21.7039 20.3206 21.1318C20.8928 20.5596 21.138 19.8392 21.2539 18.9839C21.3642 18.1599 21.3642 17.1116 21.3642 15.8124V10.9558C21.3642 9.65663 21.3642 8.60834 21.2539 7.78434C21.138 6.92898 20.8928 6.20858 20.3206 5.63644C19.816 5.13273 19.1963 4.88087 18.4702 4.75067C18.3378 3.91195 17.9103 3.14804 17.2648 2.59643C16.6193 2.04482 15.7981 1.74172 14.949 1.7417ZM16.9733 4.61286C16.8288 4.19088 16.5559 3.82465 16.193 3.56545C15.83 3.30624 15.395 3.16703 14.949 3.1673H11.1474C9.33495 3.1673 8.04811 3.1692 7.07015 3.30036C6.11499 3.42866 5.56376 3.67006 5.16174 4.07208C4.75972 4.4741 4.51832 5.02533 4.39002 5.98143C4.25886 6.95845 4.25696 8.24529 4.25696 10.0577V15.7601C4.25669 16.2061 4.3959 16.6411 4.65511 17.0041C4.91431 17.3671 5.28054 17.6399 5.70252 17.7845C5.68256 17.2047 5.68256 16.5489 5.68256 15.8124V10.9558C5.68256 9.65663 5.68256 8.60834 5.79376 7.78434C5.90781 6.92898 6.15491 6.20858 6.7261 5.63644C7.29824 5.0643 8.01864 4.8191 8.874 4.7041C9.698 4.5929 10.7463 4.5929 12.0455 4.5929H15.0012C15.7378 4.5929 16.3936 4.5929 16.9733 4.61286ZM7.73352 6.64576C7.99679 6.3825 8.36554 6.21143 9.06408 6.11734C9.78069 6.02135 10.733 6.01945 12.0968 6.01945H14.948C16.3118 6.01945 17.2632 6.02135 17.9817 6.11734C18.6793 6.21143 19.048 6.38345 19.3113 6.64576C19.5746 6.90903 19.7456 7.27778 19.8397 7.97632C19.9357 8.69293 19.9376 9.64523 19.9376 11.0091V15.7611C19.9376 17.1249 19.9357 18.0762 19.8397 18.7947C19.7456 19.4923 19.5736 19.8611 19.3113 20.1243C19.048 20.3876 18.6793 20.5587 17.9807 20.6528C17.2632 20.7488 16.3118 20.7507 14.948 20.7507H12.0968C10.733 20.7507 9.78069 20.7488 9.06313 20.6528C8.36554 20.5587 7.99679 20.3867 7.73352 20.1243C7.47026 19.8611 7.29919 19.4923 7.2051 18.7938C7.10911 18.0762 7.10721 17.1249 7.10721 15.7611V11.0091C7.10721 9.64523 7.10911 8.69293 7.2051 7.97537C7.29919 7.27778 7.47121 6.90903 7.73352 6.64576Z" fill="currentColor"/>
</g>
</svg>
