<svg width="25" height="24" viewBox="0 0 25 24" fill="none" xmlns="http://www.w3.org/2000/svg">
<path d="M1 11.8897C1 7.5672 1 5.40538 2.3434 4.06313C3.6868 2.72087 5.84748 2.71973 10.17 2.71973H14.755C19.0775 2.71973 21.2393 2.71973 22.5815 4.06313C23.9238 5.40653 23.9249 7.5672 23.9249 11.8897V14.1822C23.9249 18.5047 23.9249 20.6665 22.5815 22.0088C21.2381 23.351 19.0775 23.3522 14.755 23.3522H10.17C5.84748 23.3522 3.68566 23.3522 2.3434 22.0088C1.00115 20.6654 1 18.5047 1 14.1822V11.8897Z" stroke="black" stroke-width="1.14624"/>
<path d="M6.73233 2.71937V1M18.1948 2.71937V1M1.57422 8.4506H23.3529" stroke="black" stroke-width="1.14624" stroke-linecap="round"/>
<path d="M19.3409 17.6208C19.3409 17.9248 19.2201 18.2163 19.0052 18.4313C18.7902 18.6462 18.4987 18.767 18.1947 18.767C17.8906 18.767 17.5991 18.6462 17.3841 18.4313C17.1692 18.2163 17.0484 17.9248 17.0484 17.6208C17.0484 17.3168 17.1692 17.0252 17.3841 16.8102C17.5991 16.5953 17.8906 16.4745 18.1947 16.4745C18.4987 16.4745 18.7902 16.5953 19.0052 16.8102C19.2201 17.0252 19.3409 17.3168 19.3409 17.6208ZM19.3409 13.0358C19.3409 13.3398 19.2201 13.6313 19.0052 13.8463C18.7902 14.0613 18.4987 14.182 18.1947 14.182C17.8906 14.182 17.5991 14.0613 17.3841 13.8463C17.1692 13.6313 17.0484 13.3398 17.0484 13.0358C17.0484 12.7318 17.1692 12.4402 17.3841 12.2253C17.5991 12.0103 17.8906 11.8895 18.1947 11.8895C18.4987 11.8895 18.7902 12.0103 19.0052 12.2253C19.2201 12.4402 19.3409 12.7318 19.3409 13.0358ZM13.6097 17.6208C13.6097 17.9248 13.4889 18.2163 13.2739 18.4313C13.059 18.6462 12.7674 18.767 12.4634 18.767C12.1594 18.767 11.8679 18.6462 11.6529 18.4313C11.4379 18.2163 11.3172 17.9248 11.3172 17.6208C11.3172 17.3168 11.4379 17.0252 11.6529 16.8102C11.8679 16.5953 12.1594 16.4745 12.4634 16.4745C12.7674 16.4745 13.059 16.5953 13.2739 16.8102C13.4889 17.0252 13.6097 17.3168 13.6097 17.6208ZM13.6097 13.0358C13.6097 13.3398 13.4889 13.6313 13.2739 13.8463C13.059 14.0613 12.7674 14.182 12.4634 14.182C12.1594 14.182 11.8679 14.0613 11.6529 13.8463C11.4379 13.6313 11.3172 13.3398 11.3172 13.0358C11.3172 12.7318 11.4379 12.4402 11.6529 12.2253C11.8679 12.0103 12.1594 11.8895 12.4634 11.8895C12.7674 11.8895 13.059 12.0103 13.2739 12.2253C13.4889 12.4402 13.6097 12.7318 13.6097 13.0358ZM7.87843 17.6208C7.87843 17.9248 7.75767 18.2163 7.5427 18.4313C7.32774 18.6462 7.03619 18.767 6.73218 18.767C6.42818 18.767 6.13663 18.6462 5.92167 18.4313C5.7067 18.2163 5.58594 17.9248 5.58594 17.6208C5.58594 17.3168 5.7067 17.0252 5.92167 16.8102C6.13663 16.5953 6.42818 16.4745 6.73218 16.4745C7.03619 16.4745 7.32774 16.5953 7.5427 16.8102C7.75767 17.0252 7.87843 17.3168 7.87843 17.6208ZM7.87843 13.0358C7.87843 13.3398 7.75767 13.6313 7.5427 13.8463C7.32774 14.0613 7.03619 14.182 6.73218 14.182C6.42818 14.182 6.13663 14.0613 5.92167 13.8463C5.7067 13.6313 5.58594 13.3398 5.58594 13.0358C5.58594 12.7318 5.7067 12.4402 5.92167 12.2253C6.13663 12.0103 6.42818 11.8895 6.73218 11.8895C7.03619 11.8895 7.32774 12.0103 7.5427 12.2253C7.75767 12.4402 7.87843 12.7318 7.87843 13.0358Z" fill="black"/>
</svg>
