<svg width="20" height="20" viewBox="0 0 15 15" fill="currentColor" xmlns="http://www.w3.org/2000/svg">
<path id="Vector" d="M0.222168 11.8153V14.7779H3.18473L11.9223 6.04031L8.95975 3.07775L0.222168 11.8153ZM14.2134 3.74926C14.2866 3.67617 14.3447 3.58936 14.3843 3.49379C14.424 3.39822 14.4444 3.29577 14.4444 3.1923C14.4444 3.08883 14.424 2.98638 14.3843 2.89081C14.3447 2.79524 14.2866 2.70843 14.2134 2.63534L12.3647 0.7867C12.2916 0.713462 12.2048 0.655358 12.1092 0.615714C12.0137 0.57607 11.9112 0.555664 11.8078 0.555664C11.7043 0.555664 11.6018 0.57607 11.5063 0.615714C11.4107 0.655358 11.3239 0.713462 11.2508 0.7867L9.80507 2.23243L12.7676 5.19499L14.2134 3.74926Z" fill="currentColor"/>
</svg>
