<svg width="20" height="20" viewBox="0 0 20 20" fill="none" xmlns="http://www.w3.org/2000/svg">
<path d="M17.7077 9.99999H7.41185M3.77768 9.99999H2.29102M3.77768 9.99999C3.77768 9.51818 3.96908 9.0561 4.30977 8.71541C4.65046 8.37472 5.11254 8.18332 5.59435 8.18332C6.07616 8.18332 6.53824 8.37472 6.87893 8.71541C7.21962 9.0561 7.41102 9.51818 7.41102 9.99999C7.41102 10.4818 7.21962 10.9439 6.87893 11.2846C6.53824 11.6253 6.07616 11.8167 5.59435 11.8167C5.11254 11.8167 4.65046 11.6253 4.30977 11.2846C3.96908 10.9439 3.77768 10.4818 3.77768 9.99999ZM17.7077 15.5058H12.9177M12.9177 15.5058C12.9177 15.9877 12.7258 16.4503 12.3851 16.7911C12.0443 17.1319 11.5821 17.3233 11.1002 17.3233C10.6184 17.3233 10.1563 17.1311 9.81561 16.7904C9.47491 16.4497 9.28352 15.9876 9.28352 15.5058M12.9177 15.5058C12.9177 15.0239 12.7258 14.5621 12.3851 14.2214C12.0443 13.8806 11.5821 13.6892 11.1002 13.6892C10.6184 13.6892 10.1563 13.8806 9.81561 14.2212C9.47491 14.5619 9.28352 15.024 9.28352 15.5058M9.28352 15.5058H2.29102M17.7077 4.49416H15.1202M11.486 4.49416H2.29102M11.486 4.49416C11.486 4.01235 11.6774 3.55027 12.0181 3.20958C12.3588 2.86889 12.8209 2.67749 13.3027 2.67749C13.5413 2.67749 13.7775 2.72448 13.9979 2.81578C14.2183 2.90707 14.4186 3.04089 14.5873 3.20958C14.756 3.37827 14.8898 3.57854 14.9811 3.79895C15.0724 4.01936 15.1193 4.25559 15.1193 4.49416C15.1193 4.73272 15.0724 4.96896 14.9811 5.18937C14.8898 5.40977 14.756 5.61004 14.5873 5.77873C14.4186 5.94743 14.2183 6.08124 13.9979 6.17254C13.7775 6.26383 13.5413 6.31082 13.3027 6.31082C12.8209 6.31082 12.3588 6.11943 12.0181 5.77873C11.6774 5.43804 11.486 4.97597 11.486 4.49416Z" stroke="black" stroke-width="1.25" stroke-miterlimit="10" stroke-linecap="round"/>
</svg>
