<svg width="27" height="22" viewBox="0 0 27 22" fill="none" xmlns="http://www.w3.org/2000/svg">
<path d="M26.0357 0H0.964286C0.430915 0 0 0.446875 0 1V21C0 21.5531 0.430915 22 0.964286 22H26.0357C26.5691 22 27 21.5531 27 21V1C27 0.446875 26.5691 0 26.0357 0ZM8.2567 4.5C9.32042 4.5 10.1853 5.39687 10.1853 6.5C10.1853 7.60313 9.32042 8.5 8.2567 8.5C7.19297 8.5 6.32812 7.60313 6.32812 6.5C6.32812 5.39687 7.19297 4.5 8.2567 4.5ZM23.7425 18.1594C23.6986 18.1976 23.6432 18.2187 23.5858 18.2188H3.41116C3.27857 18.2188 3.17009 18.1063 3.17009 17.9688C3.17009 17.9094 3.19118 17.8531 3.22734 17.8062L8.35915 11.4937C8.44353 11.3875 8.59721 11.375 8.69967 11.4625C8.70871 11.4719 8.72076 11.4812 8.7298 11.4937L11.7251 15.1812L16.4893 9.32187C16.5737 9.21562 16.7273 9.20312 16.8298 9.29062C16.8388 9.3 16.8509 9.30937 16.8599 9.32187L23.7787 17.8094C23.857 17.9125 23.845 18.0719 23.7425 18.1594Z" fill="black"/>
</svg>
