<svg width="24" height="24" viewBox="0 0 20 14" fill="none" xmlns="http://www.w3.org/2000/svg">
<path d="M1.375 0.6875V13.0625C1.375 13.2448 1.30257 13.4197 1.17364 13.5486C1.0447 13.6776 0.869836 13.75 0.6875 13.75C0.505164 13.75 0.330295 13.6776 0.201364 13.5486C0.072433 13.4197 0 13.2448 0 13.0625V0.6875C0 0.505164 0.072433 0.330295 0.201364 0.201364C0.330295 0.072433 0.505164 0 0.6875 0C0.869836 0 1.0447 0.072433 1.17364 0.201364C1.30257 0.330295 1.375 0.505164 1.375 0.6875ZM10.8438 5.37109L9.125 5.92969V4.125C9.125 3.94266 9.05257 3.7678 8.92364 3.63886C8.79471 3.50993 8.61984 3.4375 8.4375 3.4375C8.25516 3.4375 8.0803 3.50993 7.95136 3.63886C7.82243 3.7678 7.75 3.94266 7.75 4.125V5.92969L6.03125 5.37109C5.8578 5.31411 5.66882 5.32837 5.50589 5.41072C5.34295 5.49308 5.2194 5.63679 5.16242 5.81023C5.10544 5.98368 5.1197 6.17266 5.20205 6.3356C5.28441 6.49853 5.42811 6.62208 5.60156 6.67906L7.32031 7.2368L6.25984 8.69773C6.2038 8.77055 6.16292 8.85386 6.13963 8.94275C6.11633 9.03163 6.11109 9.12429 6.12421 9.21523C6.13734 9.30618 6.16856 9.39357 6.21603 9.47224C6.2635 9.55091 6.32626 9.61927 6.40061 9.67328C6.47495 9.72728 6.55936 9.76583 6.64886 9.78666C6.73835 9.80748 6.83111 9.81016 6.92166 9.79452C7.01221 9.77888 7.0987 9.74525 7.17603 9.69562C7.25336 9.64599 7.31995 9.58136 7.37187 9.50555L8.43234 8.04461L9.49281 9.50555C9.54474 9.58136 9.61133 9.64599 9.68866 9.69562C9.76599 9.74525 9.85248 9.77888 9.94303 9.79452C10.0336 9.81016 10.1263 9.80748 10.2158 9.78666C10.3053 9.76583 10.3897 9.72728 10.4641 9.67328C10.5384 9.61927 10.6012 9.55091 10.6487 9.47224C10.6961 9.39357 10.7274 9.30618 10.7405 9.21523C10.7536 9.12429 10.7484 9.03163 10.7251 8.94275C10.7018 8.85386 10.6609 8.77055 10.6048 8.69773L9.54438 7.2368L11.2631 6.67906C11.4289 6.6174 11.5646 6.4942 11.6418 6.3351C11.7191 6.176 11.7321 5.99322 11.6781 5.82479C11.6241 5.65635 11.5073 5.51521 11.3519 5.43071C11.1965 5.34621 11.0145 5.32486 10.8438 5.37109ZM19.9531 5.81281C19.8968 5.64095 19.775 5.49821 19.6141 5.41552C19.4533 5.33284 19.2663 5.31688 19.0938 5.37109L17.375 5.92969V4.125C17.375 3.94266 17.3026 3.7678 17.1736 3.63886C17.0447 3.50993 16.8698 3.4375 16.6875 3.4375C16.5052 3.4375 16.3303 3.50993 16.2014 3.63886C16.0724 3.7678 16 3.94266 16 4.125V5.92969L14.2812 5.37195C14.1078 5.31554 13.9191 5.33034 13.7565 5.4131C13.594 5.49586 13.471 5.63979 13.4146 5.81324C13.3582 5.98669 13.373 6.17544 13.4557 6.33798C13.5385 6.50051 13.6824 6.62351 13.8559 6.67992L15.5746 7.23766L14.5141 8.69859C14.4581 8.77141 14.4172 8.85472 14.3939 8.94361C14.3706 9.03249 14.3654 9.12515 14.3785 9.21609C14.3916 9.30703 14.4229 9.39443 14.4703 9.4731C14.5178 9.55177 14.5806 9.62013 14.6549 9.67414C14.7292 9.72814 14.8137 9.76669 14.9032 9.78752C14.9926 9.80834 15.0854 9.81102 15.176 9.79538C15.2665 9.77974 15.353 9.74611 15.4303 9.69648C15.5077 9.64685 15.5742 9.58222 15.6262 9.50641L16.6866 8.04547L17.7471 9.50641C17.799 9.58222 17.8656 9.64685 17.943 9.69648C18.0203 9.74611 18.1068 9.77974 18.1973 9.79538C18.2879 9.81102 18.3806 9.80834 18.4701 9.78752C18.5596 9.76669 18.644 9.72814 18.7184 9.67414C18.7927 9.62013 18.8555 9.55177 18.903 9.4731C18.9504 9.39443 18.9816 9.30703 18.9948 9.21609C19.0079 9.12515 19.0027 9.03249 18.9794 8.94361C18.9561 8.85472 18.9152 8.77141 18.8591 8.69859L17.7987 7.23766L19.5174 6.67992C19.69 6.62242 19.8327 6.49888 19.9144 6.33636C19.996 6.17384 20.01 5.98558 19.9531 5.81281Z" fill="#808080"/>
</svg>
