<svg xmlns="http://www.w3.org/2000/svg" viewBox="0 0 3785.45 1618.35"><g id="Layer_2" data-name="Layer 2"><g id="Layer_1-2" data-name="Layer 1"><path d="M2174.17,400.66q0-159.46,0-318.93c0-29.66,12.44-52.56,36.87-68.79C2224.25,4.13,2239.07,0,2255.29,0q143,.32,285.95.1c57.65,0,115.31.34,173-.13a290.69,290.69,0,0,1,94.26,14.42,280.29,280.29,0,0,1,119.33,76.89c21.6,23.34,39.42,49.25,51.91,78.57,10.14,23.81,17.89,48.21,21.28,74.19,2.95,22.61,4.56,45.07,2.31,67.69-2.14,21.52-5.27,43.06-12.92,63.33-6.87,18.2-14.51,36.32-23.95,53.29-18.11,32.59-42.62,60.06-72,83.16a284.21,284.21,0,0,1-81.83,44.7c-30.61,10.78-62.29,15.33-94.89,15.22-108.31-.4-216.62-.15-324.94-.11-7,0-14,.16-21,.52-11.19.58-19.61,8.66-19.64,19.58-.13,43.3-.79,86.62.4,129.89.63,22.76,12.21,41.69,28.53,57.42A89.7,89.7,0,0,0,2416.77,800a116.92,116.92,0,0,0,33.31,5.24c63.65.49,127.3.28,191,.27q166.46,0,332.93-.1c18.41,0,30.32,11.85,30.36,30.52q.11,67.49,0,135c0,9.22-1.12,10.43-10.25,10.67-8.66.22-17.33.07-26,.07q-255.95,0-511.89-.08c-15.64,0-31.32-.8-46.9-2.08-8.56-.7-17-2.85-25.43-4.92a282.28,282.28,0,0,1-80.34-33.79c-22.63-13.88-42.28-31-60-50.52a251.68,251.68,0,0,1-40.26-59.11c-9-18.39-16.5-37.39-20.94-57.64-1.92-8.73-3.09-17.52-4.91-26.19-2.61-12.53-3.21-25.07-3.22-37.73Q2174.15,555.13,2174.17,400.66Zm177.8-5.74c3.8.24,6.7.59,9.61.59q177.91,0,355.84-.1a112.25,112.25,0,0,0,51.72-13c30.91-16,50.24-41.37,56.18-75.42,5.44-31.2,0-60.94-19.42-87-15.77-21.2-37.45-33.76-62.54-39.91-10.82-2.65-22.5-2.4-33.79-2.41q-165.42-.24-330.85-.07a87.19,87.19,0,0,0-10,.37c-9.59,1.11-15.55,7.13-16.57,16.81a146.36,146.36,0,0,0-.85,14.94q-.1,87,0,173.92C2351.29,387.2,2351.71,390.75,2352,394.92Z"/><path d="M2082.06,581.66q0,152.48,0,305c0,12.65.47,25.16-3.3,37.6-7.31,24.12-22.47,41-45.11,51.39-11.75,5.38-24.41,6-37.08,6.06q-222,0-443.93-.09c-18,0-36.12.11-53.86-2.26-16.66-2.23-33-7.42-49.29-11.82-15.41-4.15-29.84-10.75-44-18.19a308.27,308.27,0,0,1-52.85-35.52c-26-21.44-46.57-47.47-63.46-76.29-10.86-18.53-18.86-38.44-25.09-59.23-10.06-33.53-14.49-67.55-11.69-102.31,1.25-15.47,4.34-30.87,7.54-46.11,7.35-35.1,22.19-67.11,42.64-96.39,26.3-37.66,59.47-68,100.16-89.6,22-11.65,45-20.68,69.59-26.09,26.19-5.77,52.47-8,79.21-7.93q164.46.35,328.94,0c4.53,0,9.57-.26,13.48-2.19,7.85-3.89,10.66-11,10.58-19.89-.26-29.33-.1-58.66-.12-88,0-11.33.1-22.66-.13-34-.52-25.88-12.41-46.51-30.78-63.63-19.17-17.87-42.27-25.07-68.46-24.71-41.66.57-83.32.13-125,.12q-145.49,0-290.95-.19c-7.13,0-14.91-1.2-21.23-4.24-11.13-5.37-15.69-15.8-15.74-28-.09-23,0-46,0-69q0-32,0-64c0-11,.95-12,11.91-12q165,0,330,0c39.66,0,79.32-.43,119,.29,16.56.29,33.37,1.64,49.56,5a276.08,276.08,0,0,1,94.34,38.35,272.59,272.59,0,0,1,76.19,73.77c13.35,19.06,24.68,39.34,31.78,61.7,4,12.62,9.09,25,11.74,37.93,2.92,14.28,5,29,5.07,43.55.48,98,.33,196,.39,293.95Q2082.08,568.17,2082.06,581.66ZM1904.44,588c-3.86-.29-6.44-.66-9-.66q-174.48,0-349,.12c-14.58,0-29,.53-43.34,5.37-33.5,11.33-57,33.15-67.92,66.27-8.88,27-8.61,54.7,3.33,81.74a103.45,103.45,0,0,0,42,47.88c20.47,12.44,43,17,66.7,17q101-.12,202-.23c43.32,0,86.64.21,130-.06,18.6-.11,25.32-7.27,25.32-25.38q0-91,0-182Z"/><path d="M654.85,984.41C654,980,653,977,652.93,974q-.45-20.47-.46-41-.08-294.46-.08-588.94V331.9H640.86q-152,0-304,0-160-.11-319.94-.36H3.31c-2.22-6.74,1.31-10.11,4.49-13.3,23.5-23.54,47.14-46.93,70.66-70.45Q148.33,177.9,218.12,108c32.72-32.67,65.76-65,98.29-97.88C323.1,3.34,330.2.89,339.46,1c50.33.32,100.65.23,151,.24l465,0c5.67,0,11.33-.32,17-.22,7.55.14,9.26,1.82,9.88,9.44.24,3,.1,6,.1,9q0,314,.15,627.94c0,7.93-2.22,13.73-7.93,19.35-31.54,31.06-62.79,62.44-94,93.79-36.91,37-73.65,74.2-110.6,111.17-28.23,28.25-56.69,56.26-85,84.42-7.79,7.74-15.4,15.68-23.2,23.41C660.2,981.06,658.16,982.1,654.85,984.41Z"/><path d="M3096.47,489.92q0-84,0-168c0-22,3.22-43.61,7.47-65.21a292.6,292.6,0,0,1,14.51-49.51c13.29-34.24,31.54-65.58,55.64-93.54a331.92,331.92,0,0,1,61.15-55.46,317.56,317.56,0,0,1,93.84-44.9A330.58,330.58,0,0,1,3422.55.1Q3593,.32,3763.5.1c1.66,0,3.33,0,5,0,3.93.13,6.26,1.94,6.31,6.09,0,2.67.07,5.33.07,8q0,60,0,120a79,79,0,0,0,.25,10c2.63,20.67-12.14,31.43-28.79,33.37a70.94,70.94,0,0,1-8,.06q-156,0-311.95.05c-11.31,0-22.78.12-33.88,2-17.77,3-34.42,9.78-49.75,19.29-25.88,16-44.77,38.46-57.34,66-8.83,19.35-11.53,40-11.49,61.27.23,109.32,0,218.63.23,328,0,14.89,0,29.8,4.62,44.49,10.89,34.57,30.64,62.11,60.88,82.34a134.84,134.84,0,0,0,43.4,19.35,190.49,190.49,0,0,0,42.45,5c54.65.55,109.31.23,164,.22,52.32,0,104.65.11,157-.11,11.53,0,20.06,4.72,25.37,14.41,2.25,4.09,2.91,9.45,3,14.26.3,19.32.07,38.66.07,58,0,26,.06,52,0,78,0,11.12-.4,11.58-11,11.58-116.32,0-232.63.16-348.94-.19a301.22,301.22,0,0,1-73-9.06A322.54,322.54,0,0,1,3219,911.7c-39.75-31.47-70.14-70.34-91.76-116.29a312.62,312.62,0,0,1-20.72-56.7c-5.91-23.46-9.83-47.5-9.94-71.82C3096.3,607.9,3096.48,548.91,3096.47,489.92Z"/><path d="M.28,818.18q0-76,0-152c0-1.67,0-3.34.09-5,.58-7,2.34-8.81,9.32-8.78,41,.2,81.93.63,122.89.7,29.66,0,59.31-.4,89-.5,32.29-.1,64.58-.06,96.88-.07,9.54,0,12.45,2.61,12.88,12.43.26,6-.38,11.95-.38,17.93q-.06,142.49-.08,285c0,17.07-.69,17.39-17.44,16.91-11.66-.33-23.33-.16-35-.16q-115.49,0-231,0c-10.66,0-21.33.21-32,.28a54.1,54.1,0,0,1-7-.2C1.39,983.87,0,982.13,0,975.15q0-78.49,0-157Z"/><path d="M876.9,1484.49c-.71,5.4-1.43,9.94-1.89,14.5-1,10.37,3.71,19.1,11.85,22,9.9,3.58,15.75-1,14.34-11.36a175,175,0,0,0-3-17.69c-1.07-4.44-.2-7.74,3.12-10.72,4.1-3.67,8-7.51,13.5-12.65,3.89,23.92,7.31,45.41-7.93,64.84-10.52,13.39-26.13,18.68-40.71,2.89a60.09,60.09,0,0,0-4.51-4c-2.52,2.17-4.51,4.64-7.1,6-6.16,3.11-12.36,6.85-19,8.18-10.2,2-19.46-.25-22.79-11.62-7.55,3.63-14.28,8.16-21.69,10.16-12.65,3.41-25.8,2.87-38.65.42-8.85-1.69-15.81-6.83-21.08-15.26-10.93,14.65-26,16.87-42.7,16.85q-281.93-.33-563.87-.14c-3.66,0-7.34.14-11-.08-12.21-.72-21.64-6-27.43-17.1-.91-1.76-1.93-3.45-3-5.15-.15-.25-.54-.36-1.39-.9-11.52,4.14-23.73,7.18-36.57,6.25-1-.07-2,0-3-.06-19.56-1.45-32.22-10.73-23.93-34.81,4.89-14.2,14.42-24.73,25.8-33.6,10.46-8.17,21.73-15.31,32.85-23,.39-4.41-.64-10.1,1.59-13.83,3.1-5.19,8.64-8.92,14.32-14.42.49,3.58,1.07,5.93,1.09,8.28.26,24,.33,48,.69,72a117.4,117.4,0,0,0,1.63,17.85c1.51,8.88,5.38,12.55,14.44,14.09a84.05,84.05,0,0,0,13.9,1.19q282.95.08,565.87-.12c7.84,0,15.86-1.74,23.46-3.85,6.73-1.87,11.32-6.8,12.57-14.19.44-2.61,1.53-5.13,1.92-7.75,1.35-9,7.44-13.38,16.31-17.08-.54,3.94-.92,6.78-1.31,9.62-.54,3.95-1.27,7.88-1.59,11.84-.7,8.76,3.49,14.49,11.3,18.09,20.85,9.62,51.31,1.81,64.16-17.15,5.1-7.54,10.83-13.1,22.07-13.88-2.26,4.17-4.17,7.41-5.78,10.78-2,4.19-4.39,8.35-5.39,12.8-1.52,6.78,2.47,10.87,9.38,10.68,9.69-.27,17.64-6,21.17-15.48,1.16-3.11,2.51-6.26,3-9.51C863.21,1490.12,868.61,1486.76,876.9,1484.49ZM79.17,1502.67v-42.34c-16.14,8.56-30.89,16-42.21,28.48-7.87,8.66-5.48,14.46,6.21,17.25C55.64,1509,67.4,1506.38,79.17,1502.67Z"/><path d="M2941,1438.39c-4.36-13.93,4.94-20.32,14.5-28.11.55,3,1.2,5.11,1.24,7.19.47,24.64.8,49.29,1.27,73.94a120.82,120.82,0,0,0,1.1,16.92c1.3,8,5.9,13.29,14.51,14.06,4.64.42,9.28,1.1,13.92,1.1q211.46.09,422.91-.12c7.49,0,15.08-2.12,22.41-4,6.38-1.67,9.81-6.77,10.82-13.13a65.26,65.26,0,0,0,.82-12.94c-1.59-35.89-3.4-71.78-4.95-107.68-.12-2.74.39-6.2,2-8.18,3.94-4.83,8.7-9,14.8-15.06.78,7.09,1.72,12.12,1.83,17.17.86,38.63,1.69,77.27,2.27,115.91.32,20.59,6.78,27.83,27.39,28,14.31.11,28.63-.72,42.93-1.53a50.86,50.86,0,0,0,25.34-8.39c3.23-2.13,7.11-4.13,5.76-10.1-6.11,0-12.37.4-18.56-.11-7.92-.65-16.06-1.09-23.61-3.32-16.86-5-24.48-17.8-22.33-35.23,1.91-15.42,8.83-27.82,22.06-36.28,11.32-7.24,22.42-6.55,31.85,2.94a72.05,72.05,0,0,1,12.77,17.66,109.46,109.46,0,0,1,11.85,56c-.81,16.89-8.76,28.93-24.85,35.25-11.66,4.58-23.82,6.14-36.18,6.49-8,.22-16-.21-24,.1-16.33.62-31.53-1.24-40.92-17.74-9.93,13.62-22.67,17.84-38.07,17.82q-214-.35-427.92-.17a83,83,0,0,1-12.91-.83c-9.43-1.51-16.67-6.4-21.27-14.92-1.25-2.33-2.55-4.62-4.15-7.5-3.22.93-6.32,1.8-9.4,2.73-13.31,4-26.83,5.34-40.4,1.93-15.14-3.8-20.41-13.42-16.35-28.61,2.72-10.18,7.18-19.6,15-26.63,9.65-8.64,19.9-16.62,30.18-24.5C2929.46,1444.91,2934.86,1442.18,2941,1438.39Zm.95,22.19a180.29,180.29,0,0,0-32.25,18.91,60,60,0,0,0-10.93,10.06c-6.69,8.25-4.55,13.65,5.87,16.32,12.73,3.25,24.85.77,37.31-3.4Zm617.64,21.84c-3.23-13.73-8.23-23.23-17.5-30a21.6,21.6,0,0,0-29,3c-5.44,5.88-5.07,12.48,1.36,17.15a23.17,23.17,0,0,0,8.92,4.28C3534.71,1478.9,3546.16,1480.4,3559.61,1482.42Z"/><path d="M2243.28,1489c-2.52,4.66-4.32,7.78-5.94,11a72.82,72.82,0,0,0-4.6,10c-3,9.1,1.8,14.47,11.14,12.91,6.12-1,11.63-3.44,15.42-8.42,3-3.94,6.19-8.1,7.71-12.69,3-8.94,9.08-13.2,18.95-15.2-1.19,3.73-2.28,6.72-3.09,9.78-1.35,5.14-3.1,10.27-3.62,15.51-.8,8,4.59,12.5,12.51,11,6.94-1.29,12.5-4.73,15.4-11.4,1.59-3.64,3.27-7.43,3.8-11.31,1.36-10.07,7.13-16,16.86-19.49a47.68,47.68,0,0,1,0,6.34c-.78,5.59-2.27,11.13-2.56,16.74-.45,8.73,3.05,14.22,11.27,16.77,14.71,4.57,29.59,4.49,44.09-1.12,6.16-2.38,10.58-6.81,12-13.68.54-2.6,1.37-5.14,2.07-7.71,2.88-10.61,3.37-11.16,16-17.37-1,6.11-2,11.46-2.84,16.83-2,12.18,2.53,20.3,14.29,23.69,14.84,4.29,29.72,3.19,44.12-2.26,8.52-3.23,14-10.2,18.27-17.81s10.86-11,21-12.15c-2.13,3.9-3.76,6.57-5.08,9.38-2.24,4.8-4.94,9.52-6.26,14.59-1.62,6.24,2.18,10.27,8.61,10.4a23.15,23.15,0,0,0,21.37-13.87,47.61,47.61,0,0,0,3.36-10.44c1.31-7.89,6-12.19,14.84-14.63-.39,3.56-1.08,6.59-1,9.59.18,5.9-.19,12.07,1.47,17.59,2.11,7,9.77,11.07,16.53,10.41,4.62-.45,7.74-2.66,7.35-7.6-.56-7-1.06-14-2.62-20.76-1.29-5.55-.39-9.63,3.87-13.3,3.73-3.22,7.2-6.74,11.65-10.94,1,3.15,2.1,5.16,2.18,7.2.43,11.27,1.45,22.61.64,33.8-.79,10.9-6.22,20.23-14.35,27.81-11.18,10.42-22.42,10.73-33.71.57-2.18-2-3.68-4.69-5.55-7.15-3.86,3.07-6.24,5.41-9,7.1-4.24,2.56-8.55,5.36-13.21,6.84-13.56,4.32-21,1.27-29.57-11.56-16,15.37-35.83,14-55.59,12-10.14-1-18.17-6.15-24.41-15.94-10.41,14-24.57,17.34-40.65,17-15.35-.33-30.25-.67-40.52-15.54-2.47,2.06-4.52,4.07-6.87,5.65-4.12,2.78-8.15,5.95-12.7,7.79-13.13,5.32-22.71,2-32.15-10.93-2,1.65-3.81,3.57-6,4.84-4.3,2.48-8.6,5.28-13.28,6.73-13.89,4.29-21.19,1.25-29.46-11.77-11.6,11.36-26,13.23-41.45,13.19-94.31-.24-188.61-.11-282.92-.14a82.06,82.06,0,0,1-11.95-.58c-15.26-2.22-25.52-11.54-28.81-26.54a91.13,91.13,0,0,1-1.79-16.83c-1-30.63-1.64-61.27-2.59-91.9a208,208,0,0,0-1.71-21.89c-1-7.29,1-13,6.63-17.67,3.24-2.68,6.13-5.79,10.43-9.91a62.38,62.38,0,0,1,2.64,16.93c.54,39,1.18,77.94,1.6,116.91.23,21.37,6.45,28.07,28,28.11q97,.2,193.95,0,44,0,88,0c4.32,0,8.64-.39,13-.68,15.12-1,26.8-7.81,33.87-21.32C2226.42,1493.56,2233,1490.34,2243.28,1489Z"/><path d="M1302,1364.47l15.14,41.65c.39-.78.19.48-.49.87-8.56,4.88-8.92,12.51-8.63,21.35.74,22.94,1.2,45.94.33,68.86-.35,9-3.9,18.13-7.12,26.78-5.83,15.62-18.46,22-34.36,22.83-7.57.37-15.17.07-23.23.07,1.23,3.72,2.42,7.12,3.47,10.56a42,42,0,0,1-.93,27.46c-6.33,17-22.22,25.69-39.85,21.89-21.95-4.72-38.62-24.75-39.84-48-.19-3.6,0-7.21,0-11.92-6.78,0-12.69-.19-18.58,0-15.62.63-30-1.89-39.87-16.36-14.13,17.91-33,17.92-52.26,15.35-8.68-1.15-15.27-6.4-20-13.71-2.16-3.34-3.93-6.94-6.43-11.42-6,12.11-16.95,17.23-28.13,22a53.53,53.53,0,0,1-24.41,4.09c-14.08-.82-24-8.89-26.48-22.72-1.17-6.48-.94-13.24-.9-19.88,0-4.13,3-4.62,7-3.64a23.44,23.44,0,0,1,1.47,4.18c2.51,15.7,14.73,19,25.47,18.39a59.58,59.58,0,0,0,30.69-11c5.71-4,8.78-8.93,7.12-16.15-3.65-15.89-6.28-32.08-11.12-47.6-3.19-10.24-1.32-17.93,5.28-25.39,1.49-1.69,3-3.38,5.73-6.5,1.41,5,2.65,8.6,3.43,12.3,4.68,22.15,9.41,44.29,13.8,66.49,4.18,21.17,16.16,30.28,37.6,27.87a73.46,73.46,0,0,0,11.76-2.23c8.64-2.43,14.72-7.57,16.53-16.83.38-2,1-3.86,1.53-5.79,3.06-11.49,3.06-11.5,16.8-18.05-1,5.26-1.88,9.62-2.75,14-3.31,16.45,2.06,25.31,18.37,27.9,9.73,1.54,19.77,1.18,30,1.7,8.08-29.44,12.91-59,31.52-84.38a57.53,57.53,0,0,1,4.62,5.28q8.64,12.86,17.08,25.83c9.2,14.1,11.87,29.46,8.77,45.91-.31,1.62-.47,3.26-.65,4.89a9.44,9.44,0,0,0,.56,2c15.23-.41,30.84,1.73,46.27-1.71,12.39-2.77,18.17-10.3,17.43-23.1q-3.09-52.79-6.82-105.53C1286,1380.36,1289.34,1373.39,1302,1364.47Zm-123.3,182.63c2.62,20.56,22.51,39.64,41.56,40.91a19.5,19.5,0,0,0,4,0c5-.7,7.53-3.59,7.87-8.67.91-14.06-10.3-29.5-24.27-32.69C1198.41,1544.44,1188.87,1545.27,1178.74,1547.1Zm17.47-76.81-16.65,53.24c11.9-.48,22.14-.5,31.89-4.18,6.69-2.53,8.39-5.81,6.41-12.42C1213.89,1493.72,1205.86,1482.89,1196.21,1470.29Z"/><path d="M287,1228.12c6.34,3.72,11.73,6.86,17.09,10.05,5.9,3.51,6.72,5.27,4.82,10.11-2.81,7.17-6.46,10-12.44,7.69a83.85,83.85,0,0,1-20-10.66c-5.12-3.85-9.83-4.23-14.72-1.56-9.21,5-19.38,5-29.15,5.31-17.31.54-33.57-4-47.12-15.47-15.54-13.2-24.15-30-27.44-50.24a98,98,0,0,1,1-37.62c6.76-29.85,29.71-56.08,64.14-59.15,32.48-2.89,61,10.58,74.94,38.32,8.21,16.34,10.78,33.84,8.83,52.07-1.42,13.27-3.73,26.23-10.92,37.77C293.41,1218.93,290.5,1222.93,287,1228.12Zm-40.62-2.68c-2.8-2-4-3.14-5.4-3.82-11.21-5.44-11-5.33-6.49-17,1.77-4.59,4.3-5.63,8.37-3.78,6.34,2.89,12.66,5.84,18.87,9s5.89,3.12,10-2.83c6.23-9.08,8-19.34,9.48-30,2.53-18.22-.44-35.11-10.86-50.18a41.9,41.9,0,0,0-31.91-18.35c-26.07-1.77-47.13,9.94-53.7,38.43-4.15,17.94-3.66,36.6,4.29,53.77,4.33,9.37,11.75,16.48,21.42,21.36C221.43,1227.55,232.62,1227.58,246.35,1225.44Z"/><path d="M2780.84,1404.86c-.35.91-.37,1.39-.59,1.51-10.71,5.89-9.84,15.81-9.39,25.87.82,18,1.55,35.92,1.68,53.88a92.29,92.29,0,0,1-8.87,39.63c-5,10.89-13.3,17.7-24.76,19.76-23,4.13-35.1,1.41-46.18-14.48-4-5.79-5.7-13.31-8.14-20.15-.84-2.34-.75-5-1.88-8-8.22,20.38-22.15,34.59-42.51,42.28-16.6,6.28-33.54,6-51,2.78,22.05-10.65,44.65-19.91,65.87-34.47-2.56-6.62-4.58-13.26-7.61-19.39-12.16-24.63-28.6-46.48-44.87-68.44-3.77-5.08-7.78-10-11.38-15.2-7.73-11.15-7.7-15.5.06-28.9,5.48,4.27,10.81,8.6,16.32,12.66s11.39,8,17.57,12.3l-4.82,10.59c16.71,27.88,40.36,52.81,42.88,89.07,8.21-7.16,13.62-15.15,15.25-25.3a108.79,108.79,0,0,0,1.71-18.86c-.34-24.32-.4-48.66-1.93-72.91-.81-12.91,5.9-19.33,16.22-26a84.19,84.19,0,0,1,1.07,8.45c.42,30.65.66,61.3,1.2,92,.18,10.64.77,21.3,1.78,31.89a41.24,41.24,0,0,0,3.81,13.36c4.48,9.54,12.21,15,22.95,14.72a66.44,66.44,0,0,0,16.71-2.51c9.75-2.84,14.31-8.81,14.42-19.14.13-12.65-.12-25.33-.92-38-1.49-23.57-2.9-47.18-5.5-70.65-1.52-13.71,5.19-21.74,15.55-29.85,2.08,7.69,3.48,14.71,5.93,21.33C2774,1391.47,2777.58,1397.93,2780.84,1404.86Z"/><path d="M3620.09,1198.26c0-3.26,0-6.52,0-9.78q-.28-45.46-.62-90.94c0-4.78,2-7.55,6.79-8.18,1.32-.17,2.65-.26,4-.33,12.5-.62,13.67.47,13.68,13.1q.06,67.5,0,135c0,9.53-.51,10-10.25,10.21-1.66,0-3.34-.09-5,.08-5.47.56-9.09-1.25-12.3-6.24-12.22-19-25.05-37.64-37.63-56.43q-15.54-23.17-31.05-46.35c-.48-.73-1.36-1.2-3.09-2.68-.21,3.39-.49,5.85-.49,8.31q0,45.49,0,91c0,10.73-1.31,12-12,12.31-12.25.33-13.28-.63-13.29-12.59,0-11.66,0-23.32,0-35q.07-48,.15-96c0-2.66,0-5.33.18-8,.28-4.46,2.83-6.5,7.21-6.44,4,.06,8,.21,12,.15,4.47-.06,7.6,2.16,9.93,5.67q29.45,44.44,58.84,88.91c3.41,5.15,7,10.19,10.49,15.28Z"/><path d="M1351.71,1137.14q0,9.45,0,18.9c0,26.66.06,53.32,0,80,0,10.42-.9,11.18-11.55,11.32-1.67,0-3.34-.07-5,0-4.91.19-7.54-2-7.49-7,0-2,0-4,0-6q0-66,0-132c0-2,0-4,0-6,.08-4.36,2-6.88,6.69-6.79a24.94,24.94,0,0,0,5-.14c8.56-1.6,14.1,1.45,19,9,20.89,32.36,42.42,64.31,63.73,96.4,1,1.53,2.22,2.93,4.46,5.85.36-4.27.76-6.77.77-9.28,0-30,.21-60,0-90-.08-9.28,1-12.47,11-11.81,2,.13,4-.48,6-.42,6,.19,7.52,1.69,8,7.74.09,1.33,0,2.67,0,4q0,67,0,134c0,2.33.32,4.77-.26,7a7.66,7.66,0,0,1-3.25,4.5c-8.1,4.15-21.09.33-26.31-7.51q-32.55-49-65.06-98c-1-1.55-2.25-3-3.38-4.44Z"/><path d="M1905.33,1244.84c-9,4-17.4,2.78-25.45,1.79-2.84-.35-5.76-4.24-7.7-7.15-9-13.5-17.7-27.26-26.65-40.83a92.88,92.88,0,0,0-8-10.17c-5.29-6-11.77-9.39-20.09-9.11-8.58.29-17.17.06-26.44.06-.24,3.78-.58,6.67-.59,9.55,0,16.65,0,33.3-.07,49.94,0,7.16-1,8-7.92,8.48-1,.06-2,0-3,0-11.81.06-12.52-.62-12.52-12.29q0-65.93,0-131.84c0-1.66-.08-3.33,0-5,.38-7.13,1.92-8.91,9-9.1s13.95.1,20.93.21c19.94.29,39.9.23,59.82,1,14.06.55,24.69,8,31.15,20.24,12.1,22.87,4.64,51.82-20.9,61.36-3.07,1.15-6,2.54-10.46,4.42,12,9,20.27,20.3,27.4,32.46C1890.79,1220.77,1899.36,1231.73,1905.33,1244.84Zm-114.44-88.37c3.52.34,5.78.72,8,.77,16.94.34,33.82,0,50.6-3a21.81,21.81,0,0,0,18.39-19.13c1.5-10.83-9.67-23.14-19.68-23.26-17.93-.21-35.86-.47-53.79-.6-1.17,0-2.34.88-3.57,1.38Z"/><path d="M971.34,1136.61v15.72q0,40-.05,79.93c0,2.33,0,4.66-.07,7a10.81,10.81,0,0,1-.47,3.93c-3,6.68-9.14,3.81-14,4.07-4.27.22-9.05,0-9.81-6a46,46,0,0,1-.13-6q0-66.43,0-132.87c0-11.8,1.42-12.55,13.08-13.53,9.83-.82,15,4,19.92,11.5,20.48,31.37,41.31,62.52,62,93.75,1.45,2.17,3,4.27,5.67,8,.49-4.18,1-6.56,1-9q.08-45.46,0-90.91c0-2-.11-4,0-6,.08-1.3.07-2.92.8-3.83,4.63-5.67,11.16-2.34,16.79-3,3.92-.49,5.66,2.89,6,6.56.19,2,.13,4,.13,6q0,65.43,0,130.87c0,13.89-.89,14.53-14.72,14.53-6.5,0-10.67-1.94-14.56-7.93-21.31-32.83-43.3-65.21-65.08-97.73-1.26-1.88-2.74-3.61-4.13-5.42Z"/><path d="M2249.88,1187.32c-10,0-18.86,0-27.77,0-16.82,0-19.79-3.88-15.79-20.59a11.87,11.87,0,0,1,1.49-2.42h66.93c.31,4.06.78,7.62.82,11.18.12,12-.83,24.08.37,36,1.11,11-4.44,17-12.43,21.72-16.48,9.82-34.27,16-53.62,16-26.62.06-49.78-8.22-65.89-30.64a80.73,80.73,0,0,1-15-42.54c-1.38-20.85,2.91-40.46,14.05-58,11.55-18.21,29.06-27.78,50.26-30.58,13.65-1.8,27.15-1.23,40.51,2.76,14.4,4.31,25.46,12.54,32.54,25.83a66.59,66.59,0,0,1,4.67,11c1.8,5.62.23,9-5.22,11.11a25.47,25.47,0,0,1-9.7,2c-2.19-.07-4.5-1.85-6.39-3.33a8.34,8.34,0,0,1-2.62-4.18c-5.16-18.82-29.2-26.63-46.62-24.11s-31.7,10.3-39.21,27a77.36,77.36,0,0,0-4.63,51.56c3.23,13,9.16,24.3,21.24,31,15.09,8.41,31.09,11.25,47.83,5.34,6.52-2.3,12.89-5.07,19.15-8,3.82-1.79,6-4.8,5.62-9.57C2249.93,1199.93,2250.05,1194,2249.88,1187.32Z"/><path d="M2703.06,1136.68v9.67q0,44.51,0,89c0,2.65.45,5.65-.6,7.88-3.25,6.88-9.83,3.71-15.07,4.06-4,.28-8.3-.38-9-5.73a52.52,52.52,0,0,1-.28-7q0-66.48,0-133c0-11.31,1.15-12,12.62-12.67,8.92-.5,14.5,2.62,19.52,10.46,20.22,31.59,41.25,62.65,62,93.88,1.27,1.91,2.87,3.61,4.53,5.68,3.73-2.6,2.31-6.23,2.32-9.21.13-28.66.09-57.32.11-86,0-13.69,3.26-16.49,16.63-14.71,4.24.56,6.83,2.37,6.89,6.9,0,2,.06,4,.06,6q0,67,0,134V1247c-7.46.07-13.73.61-19.87-.06-2.41-.27-5.17-2.81-6.7-5-13.26-19.51-26.3-39.18-39.38-58.82q-13.78-20.71-27.54-41.48c-1.25-1.89-2.69-3.66-4-5.49Z"/><path d="M1218.35,1187.94c-3.69-.26-6.85-.61-10-.67-9-.17-17.95-.28-26.92-.27-5,0-6.92-2.41-7.26-7.32-1-14.85-.26-15.9,14.6-16,14.32-.1,28.65-.16,43-.1,9.79,0,10.29.55,10.39,10,.17,14.65.14,29.3.35,44,.07,4.72-1.4,8.37-5.4,11.06-15,10.05-30.48,18.11-49.14,19.79-11.82,1.06-23.71,1.11-34.62-1.81-22.31-6-39.85-19.13-49.53-41.18-8.69-19.8-8.2-40.78-4.24-60.79,4.6-23.2,17.86-42.1,40.87-51.84a83.53,83.53,0,0,1,34.09-6.32c13.71.2,27,2.15,39.33,9,13.73,7.68,20.84,20,25.39,34.15.59,1.85-1.72,5.81-3.75,7.1-5.45,3.44-11.61,4.69-18.36,2.36-2.34-8.85-6-16.91-13.79-22.31-11.23-7.77-23.82-10.18-37-8.09-20.94,3.31-35.91,15.17-40.83,35.74-2.87,12-1,25.08-1.35,37.68-.32,11.07,4.88,19.92,11.66,27.83,12.65,14.75,38.5,20.31,56.88,13.65,6.79-2.46,13.49-5.24,20-8.31,4.21-2,6.2-5.5,5.79-10.53C1218,1199.52,1218.35,1194.22,1218.35,1187.94Z"/><path d="M2003.18,1135.22c-.16,3.18-.47,6.35-.48,9.53q0,44.46,0,88.92c0,13.49-1.16,14.6-14.87,13.65-2.23-.16-4.43-.92-7.72-1.63v-10q0-66.95,0-133.88c0-2.32-.56-4.94.32-6.9s3-4.59,5-5a37.43,37.43,0,0,1,13.86-.41,15.29,15.29,0,0,1,8.55,5.73c8.32,11.57,16.2,23.46,24.1,35.32q22.35,33.57,44.58,67.22c.33.5,1,.77,2.31,1.72.43-2,1.08-3.63,1.08-5.25,0-31-.14-61.94-.18-92.91,0-10.81,1.93-12.61,13-12.09,3.3.16,6.58.7,10.95,1.17a72,72,0,0,1,1,8.53q.12,68.43.07,136.87c0,10.36-.94,10.84-11.34,11.76-9,.81-14.57-2.6-19.56-10.28-19.34-29.78-39.38-59.1-59.16-88.59l-9.54-14.21Z"/><path d="M2506.64,1166.05a82.63,82.63,0,0,1,19-54.51c19.46-23.91,48.74-29.77,76.82-22.74,24.17,6,41.6,21.22,49.5,44.81,5.76,17.21,9.46,35.36,3.56,53.76-2.22,6.92-3.21,14.36-6.28,20.83-10.71,22.57-28.59,35.64-53.49,39.77a91.71,91.71,0,0,1-32.7-.79c-13.27-2.55-24.78-9.61-34-19.5A84.48,84.48,0,0,1,2506.64,1166.05Zm24.58,2.89c1.85,9,2.74,18.39,5.77,27a46.18,46.18,0,0,0,23,26.25c10.1,5.29,20.6,4.2,31.16,4,7.59-.12,14.24-3.21,19.92-7.89,13.25-10.92,19.62-25.64,21.26-42.33,1.13-11.58.29-23.06-4.1-34.21-7.14-18.09-19.37-30.92-38.85-33.1-20-2.23-37.42,4.25-48.43,22.68C2534.05,1142.85,2532.23,1155.53,2531.22,1168.94Z"/><path d="M1597,1111.5h-89.49v41.83c2.67.19,5.22.53,7.77.54,21.66.05,43.31,0,65,.08,3.84,0,9.17-1.22,10.21,3.79a32.54,32.54,0,0,1-.67,15.54c-.53,1.75-6.3,2.61-9.7,2.65-16.65.19-33.3,0-50-.11-7.28,0-14.56,0-21.49,0-2.5,8.53-2.73,37.84-.5,48.08,3,.14,6.24.41,9.47.42,24,0,48,0,72,0,3.82,0,9.28-1.4,10.36,3.49,1.16,5.3.42,11.14-.3,16.64-.15,1.16-3.74,2.49-5.84,2.67-4.63.38-9.32.07-14,.06h-85c-2,0-4,0-6,0-4.72-.13-7.56-2.21-7.52-7.28,0-1.66,0-3.33,0-5q0-66.47,0-132.94c0-1,0-2,0-3,.32-8.27,1.69-9.68,10.21-9.79,9.3-.11,18.61,0,27.91,0l68.92.2c7.13,0,8.27.9,8.63,7.71C1597.14,1101.34,1597,1105.63,1597,1111.5Z"/><path d="M1650.17,1111.88v41.52c2.95.19,5.51.49,8.07.49,21.31,0,42.62-.11,63.93.15,3.33,0,9.11,1.25,9.51,2.93,1.25,5.25,1,11.06.11,16.47-.19,1.24-5,2.45-7.78,2.47-16.64.16-33.29,0-49.94-.09-7.58,0-15.16,0-23.48,0-1.47,16.57-.94,31.67-.42,47.5a70,70,0,0,0,8.17,1c23.31,0,46.62-.12,69.93-.17,2.32,0,4.65.09,7,.25,4.76.33,7.31,2.77,7.14,7.72-.05,1.33,0,2.66,0,4,0,10-1,11.22-10.59,11.24-24.65.08-49.29-.13-73.93-.18-7.65,0-15.29.24-22.94.12-9.44-.14-10.25-1-10.24-10.35q0-45.45.1-90.91c0-15.65-.07-31.3-.06-47,0-8.36.41-9.09,9-9.31,12.61-.32,25.24,0,37.86-.09,18.65-.13,37.28-.49,55.92-.58,11.63,0,16.64,7.74,11.8,18.44a8.68,8.68,0,0,1-5.08,4c-2.47.73-5.28.33-7.94.33q-32.47,0-64.94,0Z"/><path d="M2891.61,1086.39c15,.55,29.13,3.75,40.62,14,8.4,7.51,14.14,16.62,14.37,28.48.11,5.28-1.88,8.2-7.33,8.52a54.62,54.62,0,0,0-5.93.85c-4.87.85-8.57-.26-9.93-5.64-5.14-20.42-20.41-24.21-38.48-23.43-8.75.39-17.31,1.26-23.66,8.39-8.79,9.85-6,23.22,6.36,27.34,11.28,3.75,23,6,34.57,9.12,14.11,3.78,28.11,7.74,38.9,18.65,8.32,8.4,10.67,18.62,10.73,30,.11,19.88-10.91,31.94-27.68,39.86-13.57,6.42-28,7.22-42.8,6.17-11.56-.83-22-3.88-31.74-10.11-11.88-7.6-18.75-18.68-22.46-31.8-1.16-4.1-3.39-9.92,1.94-12.65,5.59-2.86,12.17-4.37,18.27-1.33,1.92,1,3.3,4.2,3.78,6.62,3.19,16.07,14.9,23.2,29.12,26,11.65,2.28,23.67,1.95,35-3.78,7.66-3.88,11.75-10.13,12.62-17.89.83-7.46-3.24-13.58-10.1-16.86a141.57,141.57,0,0,0-18.39-7.08c-14.84-4.7-30.09-8.28-44.59-13.81-13.05-5-20-16.51-23.13-29.51s3.17-24,11.63-33.51c11.52-12.94,26.86-16.33,43.33-16.55C2888.28,1086.37,2890,1086.39,2891.61,1086.39Z"/><path d="M831.32,1111.87v41.39c3.15.25,5.7.63,8.26.63,21.32,0,42.64,0,64,0,3.85,0,9.23-1.24,10.37,3.56s.52,10.51-.39,15.62c-.25,1.36-4.32,2.69-6.73,2.89-5,.4-10,0-15,0-19.61,0-39.23,0-59.92,0a268.55,268.55,0,0,0-.28,48.39c4.22,0,7.49,0,10.76,0q32.48-.16,65-.32a97.74,97.74,0,0,1,10,.44c4.15.41,6.8,2.55,6.81,7.06,0,13.29,1.74,16-14,15.91-30.31-.2-60.62-.07-90.94-.17-3.89,0-7.78-.58-12.18-.92-.33-3.35-.81-5.92-.81-8.5q-.07-69,0-137.91c0-10,.1-10.27,10.8-10.32,31.26-.14,62.52,0,93.78.1,3.44,0,8.63-1.3,9.46,3.24,1,5.34.36,11.16-.72,16.53-.26,1.26-5.17,2.2-8,2.23-21.32.19-42.64.13-64,.14Z"/><path d="M474.67,1112.58v40.72c3.64.22,6.84.57,10,.58,21,.06,42,0,62.94.08,3.86,0,9.19-1.16,10.27,3.73a34.66,34.66,0,0,1-.58,15.55c-.4,1.59-5.66,2.67-8.71,2.71-15,.19-30-.08-44.95-.11-6.65,0-13.31.05-20,.29-8.64.31-9.34.87-9.51,9q-.31,15.47,0,30.94c.15,7,1.32,8.21,8.28,8.23,23,.1,46,0,68.93-.12,1,0,2-.2,3-.23,11.88-.32,13.14.92,13.05,12.84-.06,9.73-.76,10.49-11.09,10.52q-47,.1-93.91.07c-1.34,0-2.67,0-4-.1-7-.58-7.91-1.46-8.13-8.44-.14-4.33,0-8.66,0-13V1102c0-2,0-4,0-6,0-4,1.93-6.12,6.09-6.17,8.31-.1,16.62-.41,24.93-.45q35.94-.19,71.89-.19c4.2,0,9.91-1,11.23,4.07,1.27,4.86.33,10.42-.31,15.59-.14,1.14-3,2.43-4.75,2.78a41.43,41.43,0,0,1-8,.28c-22,0-44,0-65.94,0C482,1111.92,478.48,1112.33,474.67,1112.58Z"/><path d="M691.93,1246.65v-69.38c-8-3-63-3.6-74.92-1-.15,3-.44,6.21-.45,9.43-.06,17.31,0,34.63-.08,51.94,0,8.76-.87,9.47-9.83,9.73-1.66,0-3.33.08-5,0-7.49-.49-8.82-1.62-8.86-8.88-.13-20.63-.06-41.26-.07-61.9,0-25.29,0-50.58-.08-75.87,0-10,1.25-11.47,11.34-11.59a43.84,43.84,0,0,1,5,.08c6.11.66,7.42,1.8,7.51,8.16.19,14,.07,28,.08,42v10.39c8.07,2.56,62.7,3,74.26.8.33-3.25,1-6.79,1-10.33.11-13.65-.06-27.3,0-41,0-8.82.75-9.39,9.81-9.62,14.84-.38,14.83-.38,14.82,14.62q0,64.44,0,128.87c0,2.66-.08,5.33-.07,8,0,3.66-2.09,5.8-5.43,5.92C705.11,1247.22,699.24,1246.83,691.93,1246.65Z"/><path d="M3099.35,1148.69c0,16.32.3,32.64-.1,49a49.54,49.54,0,0,1-10.23,29.55c-9.31,12-21.19,19.53-37,20.69-10,.73-19.75,1.17-29.76.08-23.37-2.54-39.42-17.41-44.22-40.31-2.69-12.87-3.32-25.67-3.26-38.67.09-23,0-46-.07-68.93,0-9.67.36-9.67,9.82-10.51,17.31-1.54,15.89,1.94,15.72,15.54-.34,28.3,0,56.6.18,84.91a47.56,47.56,0,0,0,1.06,10.87c3.88,15.87,13.79,24.61,32.31,25.21,7.9.25,15.65,0,23.4-3.46,10-4.45,14.41-12.29,16.37-22,1-4.83.61-9.95.61-14.94,0-28.3,0-56.61,0-84.91,0-10.24.39-10.59,10.48-11.39a56.92,56.92,0,0,1,6-.22c7.68.21,9.13,1.7,9.15,9.6,0,16.64,0,33.29,0,49.94Z"/><path d="M3777.06,1495.87c-3.26,7.71-5.49,14-8.57,19.8-1.22,2.32-4.06,4.31-6.6,5.3-5.89,2.27-12,3.92-18.11,5.66-18.56,5.33-37.27,10.19-55.67,16-14.66,4.63-29.56,5-44.51,4-16.95-1.16-28.35-11.93-31.37-28.52a105.87,105.87,0,0,1-1.54-14.87c-1.45-37.27-2.71-74.54-4.21-111.81-.54-13.44,4.25-21.52,18.42-28.2.62,13,1.53,25.54,1.77,38.07.58,32,.87,64,1.27,96,0,2.34,0,4.67.16,7,.61,9.5,4.57,15.18,13.65,17.35,15.82,3.77,31.61,2.26,48.66-1.59-2.64-2.67-4.34-4.48-6.12-6.2-13.14-12.67-16.92-29.45-8.72-45.62a81.66,81.66,0,0,1,15.94-21.4c13.92-13.4,37.15-12.6,50.65,1.24a106.43,106.43,0,0,1,11.68,14.86c.95,1.4,0,4.09-.07,6.19-1.8-.33-4-.12-5.33-1.08-13.33-9.31-27.94-10.37-43-6.29-16.89,4.57-23.84,12.61-8.75,30.13,10.76,12.51,24.47,19.47,41.83,14.3,10.84-3.23,21.72-6.31,32.6-9.41A58.68,58.68,0,0,1,3777.06,1495.87Z"/><path d="M3508.84,1245c-9.19,3.57-17.62,3.28-25.91,1-1.88-.52-3.43-3.77-4.33-6.08-4.37-11.08-8.65-22.21-12.57-33.46-1.46-4.18-3.83-5.74-8.07-5.72-16.33.07-32.66,0-49-.07-4.54,0-6.87,1.67-8.43,6.48-3.89,11.93-8.63,23.6-13.43,35.21-.84,2-3.46,4.34-5.53,4.63a66.7,66.7,0,0,1-15,.16c-4.7-.4-6.24-3.23-4.52-7.78q9.29-24.64,18.83-49.18c7-17.89,14.1-35.7,21-53.61,4.87-12.66,9.4-25.45,14.2-38.14,2.76-7.31,5.56-9.14,13.48-9.33.67,0,1.33,0,2,0,14.15.09,13.74.25,19,13.8,6.08,15.72,13.07,31.08,19.49,46.68,6.93,16.81,13.66,33.71,20.49,50.56C3496.41,1214.53,3502.29,1228.91,3508.84,1245Zm-53.48-65.75L3433.14,1119l-22.41,60.28Z"/><path d="M107,1200.71c-18.11,0-36.37,0-54.62,0a7.45,7.45,0,0,0-7.54,5.42c-3.19,9.37-6.55,18.69-9.59,28.11-4,12.3-14.07,17.25-26.21,12.61-3.71-1.43-3.9-4.2-2.68-7.34,6.34-16.29,12.8-32.54,19.11-48.84q10.2-26.36,20.19-52.78c4.89-13,9.37-26.12,14.37-39.06,3.19-8.26,6.49-10,15.3-9.6,2.66.14,5.31.48,8,.47,5.5,0,8.33,3.07,10.26,7.84,10,24.78,20.25,49.49,30.3,74.27,6.45,15.92,12.7,31.93,19.12,47.86,2.59,6.42,5.43,12.74,8.06,19.15,2.08,5.07.77,7.65-4.69,8.25a125.08,125.08,0,0,1-14,.31c-5,0-8-2.75-9.61-7.27-3.42-9.66-6.68-19.37-10.29-29C111.19,1207.82,109.12,1204.76,107,1200.71Zm-7.33-21.37c-6.69-20.28-14.94-39-22.3-58.31-7.17,19.44-15.78,37.91-21.3,58.31Z"/><path d="M2487.89,1134c-1.88,1-3.84,2.28-6,3.17-11.51,4.82-15.2,3.47-20.06-8-7.69-18.09-30.68-24.45-47.37-19.59-23.26,6.78-32.92,23.86-35.17,46.74-1.42,14.52-1,29.24,5,43.14,6.92,16.23,19.66,27.39,41.16,27.44,23.12,0,34.21-10.47,40.77-30.92,1.56-4.83,3.69-6.66,8.36-6.22,2.32.22,4.68.25,7,.69,10.52,2,12.09,6,8.24,16.21-5.25,13.91-13.67,25.18-26.3,32.77-14.63,8.8-30.7,11.56-47.73,9.42-17.92-2.25-33.1-9.41-44.44-23.72-6.63-8.35-10.84-17.66-13.86-28.17-3.78-13.18-4.42-26.27-3.63-39.5,1.7-28.52,13.82-51.3,40.31-63.89,26.66-12.67,62.23-9.77,82.12,12.68C2485.35,1116.57,2488.42,1123.65,2487.89,1134Z"/><path d="M1652.07,1512.88a88.32,88.32,0,0,0-12.63-32.37c-5.57-8.93-4.43-15.91,1.78-23.28,2.13-2.52,4-5.26,6.56-8.67,1.79,2.22,3.49,3.7,4.42,5.57,8,16.19,15.84,32.61,14.39,51.28-.56,7.12-3.1,14.15-5.24,21.06-1.82,5.88-6.73,8.76-12.22,10.92-19,7.49-38.78,12-59,14.74-21.58,2.9-43.11,3.45-64.5-1.77-43.56-10.64-58.29-39.59-48.37-82.09,1.49-6.36,4.38-12.39,6.88-19.29l7.9,2.81c-1.42,8.17-3.17,15.6-3.92,23.13-1.76,17.51,4.95,31.22,19.8,40.75,10.29,6.61,21.81,10.08,33.77,11.61,35.33,4.54,69.75-.3,103.47-11.1C1647.35,1515.49,1649.31,1514.22,1652.07,1512.88Z"/><path d="M3664.38,1111.89c-.74-3.53-1.62-6-1.75-8.58-.72-14.3,1.33-13.91,12.54-13.76,27.28.37,54.56-.19,81.84-.35,9.26,0,18.53,0,28.44,0v22.06c-15.21,1.67-30.75-.26-47.32,1.08v11.27q0,55.49,0,111a59.81,59.81,0,0,1-.07,6c-.62,6.18-1.87,6.88-11.67,6.86-12.18,0-13.22-.49-13.78-6.75-.24-2.65-.05-5.33-.05-8q0-55,0-110c0-3.24-.32-6.49-.55-10.82Z"/><path d="M3310.65,1111.84V1131q0,52,0,104c0,12.3-.18,12.42-12.15,12.33s-12.48-.46-12.49-12.24q-.06-44.49,0-89c0-8.33.05-16.66,0-25,0-2.59-.46-5.18-.76-8.35-3-.33-5.49-.84-8-.86-11-.11-22,.06-33-.14-7-.13-7.84-1.16-8.32-8.23-.11-1.66-.12-3.33-.07-5,.28-8.25.95-8.86,9.45-8.89l104.88-.39c3.88,0,9.19-1.37,10.11,3.72,1,5.32.18,11.11-.79,16.52-.21,1.15-4.52,2.14-7,2.2-9.66.26-19.33.11-29,.11Z"/><path d="M355.37,1224.33c19.74,0,38,0,56.31,0,4,0,8,0,12,.31,3.77.34,6,2.64,6.26,6.54.13,2,.14,4,.12,6-.11,8.59-1.1,10-9.75,10.07-17,.22-34,0-51,0-10.33,0-20.66.25-31,0-8.07-.15-9.37-1.43-9.38-9.39q-.11-69.45,0-138.91c0-8.46,1.41-9.61,10-10h1c13.92-.21,14.55.43,14.55,14.34q0,54.46,0,108.93C354.56,1215.9,355,1219.48,355.37,1224.33Z"/><path d="M3153.94,1224.35h22.67c13.64,0,27.29,0,40.94,0,4,0,9.08-.25,9.88,4.58a35.28,35.28,0,0,1-1.08,15.49c-.53,1.73-5.71,2.74-8.81,2.85-9.31.33-18.64,0-28,0-17,0-33.95.18-50.93.1-9.72,0-10.65-.89-10.66-10q-.1-69.41,0-138.81a70,70,0,0,1,.75-7.21,37.85,37.85,0,0,1,5.68-1.71c17.44-2.47,18.7-1.33,18.69,16.33q0,53.43,0,106.85C3153.12,1216.38,3153.61,1219.93,3153.94,1224.35Z"/><path d="M1295.83,1168.65q0,33,0,65.92a40.31,40.31,0,0,1-.48,7.94c-.29,1.44-1.65,3.75-2.6,3.79a145.08,145.08,0,0,1-18.65-.35c-1.11-.09-2.42-2.91-2.82-4.65-.5-2.23-.19-4.64-.19-7q0-64.92,0-129.84a50.31,50.31,0,0,1,.37-8c.73-4.47,3.43-6.89,8.12-7.31,14.64-1.32,16.28,0,16.3,14.52q0,32.46,0,64.91Z"/><path d="M1924.16,1245.4v-12.06q0-60.88,0-121.76c0-4.64-.83-9.32-.42-13.91.24-2.58,1.94-6.93,3.48-7.17,5.78-.88,11.77-.58,17.66-.25,1,.06,2.41,2.32,2.68,3.74a42.94,42.94,0,0,1,.32,8q0,65.88,0,131.75c0,13.36-1.58,14.83-14.91,13.65C1930.36,1247.11,1927.85,1246.24,1924.16,1245.4Z"/><path d="M1778.54,1476.66c4.15-7.32,8.22-14.52,12.94-22.84,2.07,3,3.66,4.94,4.86,7.1,3.06,5.54,5.82,11.24,8.9,16.76,6.48,11.61,10.08,23.87,9.27,37.28a106.21,106.21,0,0,0,0,11c1.16,26.6-12,46.37-30.54,63.38-8.7,8-19.42,10.84-30.68,8.08-10.91-2.67-21.44-7-32.09-10.68-4.47-1.57-5.67-4.37-2-8.69,2,.36,4.2.78,6.44,1.18,15.44,2.78,29.76.16,42.91-8.63,12.76-8.54,22.29-19.81,29.62-33.21,4.16-7.6,5-14.94.78-22.76-5.38-10-10.51-20-15.8-30C1781.77,1482,1780.17,1479.46,1778.54,1476.66Z"/><path d="M1350.36,1551.47c-.5-2.52-1.15-4-1-5.47,2.59-31.25,1.86-62.49-.11-93.73-1.26-19.92-2.76-39.83-4.38-59.73-.36-4.32.55-7.78,3.56-10.86,4.55-4.64,9-9.4,13.42-14.11l2.19.78c.73,5.71,2,11.42,2.11,17.14,1,42.23,1.66,84.46,2.65,126.68.32,13.68-3.7,25.52-13.13,35.45C1354.39,1548.92,1352.7,1549.79,1350.36,1551.47Z"/><path d="M1716.17,1368.7c.67,5.53,1.8,11,1.93,16.58,1,42.25,1.74,84.5,2.67,126.75.31,14-3.88,26.19-13.84,36.22a13.68,13.68,0,0,1-2.22,2c-.47.3-1.2.19-2.51.35-.32-1.76-1.07-3.6-.91-5.36,2.74-29.9,1.87-59.8-.08-89.7-1.38-21.23-3.07-42.44-4.42-63.67-.16-2.49.19-5.69,1.64-7.48,4.73-5.85,10.08-11.2,15.19-16.75Z"/><path d="M1111.19,1454.38l-22.32-19.61c5-6.44,9.65-12.33,15-19.12l22.51,19.88C1121.14,1442,1116.49,1447.8,1111.19,1454.38Z"/><path d="M2934.33,1375.05l15-17.48,19.78,18.59c-3.19,8.58-5.64,11.73-13.87,18.06Z"/><path d="M3521.43,1386.56c.92,3.54,1.76,6.86-1.44,10-3.48,3.46-6.44,7.45-10.15,11.83L3488.1,1389l14.24-17.44c4.4,3.71,8.28,7.1,12.29,10.32,2.16,1.74,4.53,3.2,6.81,4.78Z"/><path d="M728.5,1599.14c-.19,1.79.22,4-.68,5.28-3.23,4.54-6.91,8.77-11.07,13.93l-22.1-19.5,14.89-17.93c7,6.74,13.12,12.66,19.26,18.57Z"/><path d="M728.5,1599.14l.3.35c2.55-8.28,8.81-13.68,15.4-20.26l20.7,19.65-14,17.2c-4.9-4.35-8.87-8.23-13.23-11.62C734.92,1602.31,731.58,1600.89,728.5,1599.14Z"/><path d="M59.68,1397.36l-21.91-19.65c4.73-5.83,9.16-11.29,14.58-18L73.64,1380C68.83,1386,64.59,1391.24,59.68,1397.36Z"/><path d="M1569.14,1418.93l-14,17.31-22-19.2c4.67-5.78,9.1-11.29,14.48-18Z"/><path d="M2276.11,1441.66c-.3,8.63-7.5,12.57-12.65,19.36l-22-19.1c4.72-5.78,9.2-11.24,14.38-17.57l20.61,17.65Z"/><path d="M2393.89,1437.49c.69,9.54-7.28,13.26-12.47,19.61l-21.61-19c4.71-5.72,9.21-11.2,14.45-17.58l19.94,17.26Z"/><path d="M2914.88,1359.73l21.28,20.23-13.75,17.33-22.22-19.43Z"/><path d="M3521.44,1386.66l16-17.41,21.22,19.56L3544.56,1406l-23.13-19.45Z"/><path d="M2394.2,1437.8c3-7.6,8.65-13,15.18-19.4l20.69,19.62-13.43,16.66-22.74-17.18Z"/><path d="M2276.44,1442c1.66-8.39,8-13.24,14.58-19.66l19.78,18.34c-2.81,7.6-7.75,12.64-13.24,17.23l-21.45-16.25Z"/><path d="M1582,1396.72l21.13,20.15-13.76,17c-7.42-6.47-14.31-12.46-22.09-19.23Z"/><path d="M86.74,1357.48l21.09,20.11-14,17.57-22.12-20Z"/><path d="M2251,1404.13l14.83-17.76,21.24,19.87-14,17.12Z"/></g></g></svg>