<svg width="19" height="19" viewBox="0 0 19 19" fill="none" xmlns="http://www.w3.org/2000/svg">
<g clip-path="url(#clip0_3304_560)">
<path fill-rule="evenodd" clip-rule="evenodd" d="M6.67969 4.45288C6.67969 4.04297 6.34741 3.71069 5.9375 3.71069H5.19531V2.96851C5.19531 2.5586 4.86304 2.22632 4.45312 2.22632C4.04321 2.22632 3.71094 2.5586 3.71094 2.96851V3.71069H2.96875C2.55884 3.71069 2.22656 4.04297 2.22656 4.45288C2.22656 4.86279 2.55884 5.19507 2.96875 5.19507H3.71094V5.93726C3.71094 6.34717 4.04321 6.67944 4.45312 6.67944C4.86304 6.67944 5.19531 6.34717 5.19531 5.93726V5.19507H5.9375C6.34741 5.19507 6.67969 4.86279 6.67969 4.45288Z" fill="white"/>
<path fill-rule="evenodd" clip-rule="evenodd" d="M5.9375 3.71082C6.34741 3.71082 6.67969 4.04309 6.67969 4.453C6.67969 4.86291 6.34741 5.19519 5.9375 5.19519H5.19531V5.93738C5.19531 6.34729 4.86304 6.67957 4.45312 6.67957C4.04321 6.67957 3.71094 6.34729 3.71094 5.93738V5.19519H2.96875C2.55884 5.19519 2.22656 4.86291 2.22656 4.453C2.22656 4.04309 2.55884 3.71082 2.96875 3.71082H3.71094V2.96863C3.71094 2.55872 4.04321 2.22644 4.45312 2.22644C4.86304 2.22644 5.19531 2.55872 5.19531 2.96863V3.71082H5.9375ZM7.05078 0.370972H1.85547C1.03906 0.370972 0.371094 1.03894 0.371094 1.85535V7.05066C0.371094 7.86707 1.03906 8.53503 1.85547 8.53503H7.05078C7.86719 8.53503 8.53516 7.86707 8.53516 7.05066V1.85535C8.53516 1.03894 7.86719 0.370972 7.05078 0.370972Z" fill="#FF5D7D"/>
<path fill-rule="evenodd" clip-rule="evenodd" d="M7.05078 10.4646H1.85547C1.03906 10.4646 0.371094 11.1326 0.371094 11.949V17.1443C0.371094 17.9607 1.03906 18.6287 1.85547 18.6287H7.05078C7.86719 18.6287 8.53516 17.9607 8.53516 17.1443V11.949C8.53516 11.1326 7.86719 10.4646 7.05078 10.4646ZM2.96875 13.8044H5.9375C6.34741 13.8044 6.67969 14.1367 6.67969 14.5466C6.67969 14.9565 6.34741 15.2888 5.9375 15.2888H2.96875C2.55884 15.2888 2.22656 14.9565 2.22656 14.5466C2.22656 14.1367 2.55884 13.8044 2.96875 13.8044Z" fill="#FFEA60"/>
<path fill-rule="evenodd" clip-rule="evenodd" d="M5.9375 13.8044H2.96875C2.55884 13.8044 2.22656 14.1367 2.22656 14.5466C2.22656 14.9565 2.55884 15.2888 2.96875 15.2888H5.9375C6.34741 15.2888 6.67969 14.9565 6.67969 14.5466C6.67969 14.1367 6.34741 13.8044 5.9375 13.8044Z" fill="white"/>
<path fill-rule="evenodd" clip-rule="evenodd" d="M7.05076 10.4646C7.86716 10.4646 8.53513 11.1326 8.53513 11.949V17.1443H10.4649V11.949C10.4649 11.1326 11.1329 10.4646 11.9493 10.4646H17.1445V8.53489H11.9493C11.1329 8.53489 10.4649 7.86692 10.4649 7.05052V1.85522H8.53513V7.05052C8.53513 7.86692 7.86716 8.53489 7.05076 8.53489H1.85547V10.4646H7.05076Z" fill="#8690AF"/>
<path fill-rule="evenodd" clip-rule="evenodd" d="M10.4648 7.05054C10.4648 7.86694 11.1328 8.53491 11.9492 8.53491H17.1445C17.9609 8.53491 18.6289 7.86694 18.6289 7.05054V1.85522C18.6289 1.03882 17.9609 0.37085 17.1445 0.37085H11.9492C11.1328 0.37085 10.4648 1.03882 10.4648 1.85522V7.05054ZM14.0221 6.02728C13.7322 6.31714 13.2623 6.31714 12.9725 6.02728C12.6826 5.73742 12.6826 5.26751 12.9725 4.97768C13.89 4.06019 14.1542 3.79597 15.0717 2.87844C15.3615 2.58858 15.8315 2.58858 16.1213 2.87844C16.4111 3.1683 16.4111 3.63822 16.1213 3.92804C15.2038 4.84557 14.9396 5.10979 14.0221 6.02728Z" fill="#CBE558"/>
<path fill-rule="evenodd" clip-rule="evenodd" d="M12.9713 6.0273C13.2612 6.31716 13.7311 6.31716 14.0209 6.0273C14.9384 5.10981 15.2026 4.84559 16.1201 3.9281C16.41 3.63824 16.41 3.16832 16.1201 2.8785C15.8303 2.58864 15.3604 2.58864 15.0705 2.8785C14.153 3.79599 13.8888 4.06021 12.9713 4.97774C12.6814 5.26753 12.6814 5.73748 12.9713 6.0273Z" fill="white"/>
<path fill-rule="evenodd" clip-rule="evenodd" d="M17.1445 10.4646H11.9492C11.1328 10.4646 10.4648 11.1326 10.4648 11.949V17.1443C10.4648 17.9607 11.1328 18.6287 11.9492 18.6287H17.1445C17.9609 18.6287 18.6289 17.9607 18.6289 17.1443V11.949C18.6289 11.1326 17.9609 10.4646 17.1445 10.4646ZM12.9725 12.9722C13.2623 12.6824 13.7322 12.6824 14.0221 12.9722L14.5469 13.497L15.0717 12.9722C15.3615 12.6824 15.8315 12.6824 16.1213 12.9722C16.4111 13.2621 16.4111 13.732 16.1213 14.0218L15.5965 14.5466L16.1213 15.0714C16.4111 15.3613 16.4111 15.8312 16.1213 16.121C15.8314 16.4109 15.3615 16.4109 15.0717 16.121L14.5469 15.5962L14.0221 16.121C13.7322 16.4109 13.2623 16.4109 12.9725 16.121C12.6826 15.8311 12.6826 15.3612 12.9725 15.0714L13.4973 14.5466L12.9725 14.0218C12.6826 13.732 12.6826 13.2621 12.9725 12.9722Z" fill="#66E0F7"/>
<path fill-rule="evenodd" clip-rule="evenodd" d="M16.1201 12.9722C15.8302 12.6824 15.3603 12.6824 15.0705 12.9722L14.5457 13.497L14.0209 12.9722C13.731 12.6824 13.2611 12.6824 12.9713 12.9722C12.6814 13.2621 12.6814 13.732 12.9713 14.0218L13.4961 14.5466L12.9713 15.0714C12.6814 15.3613 12.6814 15.8312 12.9713 16.121C13.2612 16.4109 13.7311 16.4109 14.0209 16.121L14.5457 15.5962L15.0705 16.121C15.3604 16.4109 15.8303 16.4109 16.1201 16.121C16.41 15.8312 16.41 15.3612 16.1201 15.0714L15.5953 14.5466L16.1201 14.0218C16.41 13.732 16.41 13.2621 16.1201 12.9722Z" fill="white"/>
<path d="M19 7.05051V1.85522C19 0.832116 18.1676 -0.000244141 17.1445 -0.000244141H11.9492C11.0532 -0.000244141 10.3035 0.63822 10.1311 1.48413H8.86885C8.69647 0.63822 7.94679 -0.000244141 7.05075 -0.000244141H1.85546C0.83236 -0.000244141 0 0.832116 0 1.85522V7.05051C0 7.94655 0.638464 8.69623 1.48437 8.86864V10.1309C0.638464 10.3033 0 11.053 0 11.949V17.1443C0 18.1674 0.83236 18.9998 1.85546 18.9998H7.05075C7.94679 18.9998 8.69647 18.3613 8.86888 17.5154H10.1312C10.3036 18.3613 11.0532 18.9998 11.9493 18.9998H17.1445C18.1676 18.9998 19 18.1674 19 17.1443V11.949C19 11.053 18.3615 10.3033 17.5156 10.1309V8.86864C18.3615 8.69623 19 7.94655 19 7.05051ZM11.9492 0.74194H17.1445C17.7584 0.74194 18.2578 1.24136 18.2578 1.85522V7.05051C18.2578 7.66437 17.7584 8.16379 17.1445 8.16379H11.9492C11.3354 8.16379 10.836 7.66437 10.836 7.05051V1.85522C10.836 1.24136 11.3354 0.74194 11.9492 0.74194ZM0.742185 7.05051V1.85522C0.742185 1.24136 1.2416 0.74194 1.85546 0.74194H7.05075C7.66461 0.74194 8.16403 1.24136 8.16403 1.85522V7.05051C8.16403 7.66437 7.66461 8.16379 7.05075 8.16379H1.85546C1.2416 8.16379 0.742185 7.66437 0.742185 7.05051ZM7.05075 18.2576H1.85546C1.2416 18.2576 0.742185 17.7582 0.742185 17.1443V11.949C0.742185 11.3351 1.2416 10.8357 1.85546 10.8357H2.78304C2.988 10.8357 3.15414 10.6696 3.15414 10.4646C3.15414 10.2597 2.988 10.0935 2.78304 10.0935H2.22655V8.90597H7.05075C8.07386 8.90597 8.90621 8.07361 8.90621 7.05051V2.22631H10.0938V7.05051C10.0938 8.07361 10.9261 8.90597 11.9492 8.90597H16.7734V10.0935H11.9492C10.9261 10.0935 10.0938 10.9259 10.0938 11.949V16.7732H8.90621V11.949C8.90621 10.9259 8.07386 10.0935 7.05075 10.0935H6.12291C5.91796 10.0935 5.75182 10.2597 5.75182 10.4646C5.75182 10.6696 5.91796 10.8357 6.12291 10.8357H7.05075C7.66461 10.8357 8.16403 11.3351 8.16403 11.949V17.1443C8.16403 17.7582 7.66461 18.2576 7.05075 18.2576ZM18.2578 11.949V17.1443C18.2578 17.7582 17.7584 18.2576 17.1445 18.2576H11.9492C11.3354 18.2576 10.836 17.7582 10.836 17.1443V11.949C10.836 11.3351 11.3354 10.8357 11.9492 10.8357H17.1445C17.7584 10.8357 18.2578 11.3351 18.2578 11.949Z" fill="black"/>
<path d="M2.96875 5.56635H3.33984V5.93744C3.33984 6.5513 3.83926 7.05072 4.45313 7.05072C5.06699 7.05072 5.56641 6.5513 5.56641 5.93744V5.56635H5.9375C6.55136 5.56635 7.05078 5.06693 7.05078 4.45306C7.05078 3.8392 6.55136 3.33978 5.9375 3.33978H5.56641V2.96869C5.56641 2.35483 5.06699 1.85541 4.45313 1.85541C3.83926 1.85541 3.33984 2.35483 3.33984 2.96869V3.33978H2.96875C2.35489 3.33978 1.85547 3.8392 1.85547 4.45306C1.85547 5.06693 2.35489 5.56635 2.96875 5.56635ZM2.96875 4.08197H3.71094C3.91589 4.08197 4.08203 3.91583 4.08203 3.71088V2.96869C4.08203 2.76407 4.2485 2.5976 4.45313 2.5976C4.65775 2.5976 4.82422 2.76407 4.82422 2.96869V3.71088C4.82422 3.91583 4.99036 4.08197 5.19531 4.08197H5.9375C6.14212 4.08197 6.30859 4.24844 6.30859 4.45306C6.30859 4.65769 6.14212 4.82416 5.9375 4.82416H5.19531C4.99036 4.82416 4.82422 4.9903 4.82422 5.19525V5.93744C4.82422 6.14206 4.65775 6.30853 4.45313 6.30853C4.2485 6.30853 4.08203 6.14206 4.08203 5.93744V5.19525C4.08203 4.9903 3.91589 4.82416 3.71094 4.82416H2.96875C2.76413 4.82416 2.59766 4.65769 2.59766 4.45306C2.59766 4.24844 2.76413 4.08197 2.96875 4.08197Z" fill="black"/>
<path d="M5.9375 13.4335H2.96875C2.35489 13.4335 1.85547 13.933 1.85547 14.5468C1.85547 15.1607 2.35489 15.6601 2.96875 15.6601H5.9375C6.55136 15.6601 7.05078 15.1607 7.05078 14.5468C7.05078 13.933 6.55136 13.4335 5.9375 13.4335ZM5.9375 14.9179H2.96875C2.76413 14.9179 2.59766 14.7514 2.59766 14.5468C2.59766 14.3422 2.76413 14.1757 2.96875 14.1757H5.9375C6.14212 14.1757 6.30859 14.3422 6.30859 14.5468C6.30859 14.7514 6.14212 14.9179 5.9375 14.9179Z" fill="black"/>
<path d="M16.382 12.7099C15.9479 12.2759 15.2416 12.2759 14.8076 12.7099L14.5452 12.9723L14.2828 12.7099C13.8487 12.2759 13.1425 12.2759 12.7084 12.7099C12.2743 13.144 12.2743 13.8503 12.7084 14.2843L12.9708 14.5467L12.7084 14.8091C12.2743 15.2432 12.2743 15.9495 12.7084 16.3836C12.9255 16.6006 13.2105 16.7091 13.4956 16.7091C13.7806 16.7091 14.0658 16.6006 14.2828 16.3836L14.5452 16.1212L14.8076 16.3836C15.2416 16.8176 15.9479 16.8177 16.382 16.3836C16.8161 15.9495 16.8161 15.2432 16.382 14.8092L16.1196 14.5468L16.382 14.2844C16.8161 13.8503 16.8161 13.144 16.382 12.7099ZM15.3324 14.8092L15.8572 15.334C16.0019 15.4787 16.0019 15.7141 15.8572 15.8588C15.7126 16.0035 15.4771 16.0036 15.3324 15.8588L14.8076 15.334C14.738 15.2644 14.6436 15.2253 14.5452 15.2253C14.4468 15.2253 14.3524 15.2644 14.2828 15.334L13.7579 15.8588C13.6878 15.9289 13.5947 15.9675 13.4955 15.9675C13.3964 15.9675 13.3032 15.9289 13.2332 15.8588C13.0885 15.7141 13.0885 15.4787 13.2332 15.334L13.758 14.8092C13.9029 14.6643 13.9029 14.4294 13.758 14.2844L13.2332 13.7596C13.1631 13.6895 13.1245 13.5963 13.1245 13.4972C13.1245 13.3981 13.1631 13.3049 13.2332 13.2348C13.3055 13.1624 13.4005 13.1263 13.4955 13.1263C13.5906 13.1263 13.6856 13.1625 13.7579 13.2348L14.2828 13.7596C14.3524 13.8292 14.4468 13.8683 14.5452 13.8683C14.6436 13.8683 14.738 13.8292 14.8076 13.7596L15.3324 13.2348C15.477 13.0901 15.7124 13.0901 15.8572 13.2348C16.0019 13.3795 16.0019 13.6149 15.8572 13.7596L15.3324 14.2844C15.1875 14.4293 15.1875 14.6642 15.3324 14.8092Z" fill="black"/>
<path d="M13.4956 6.61535C13.7806 6.61535 14.0658 6.50681 14.2828 6.28983L16.382 4.19063C16.816 3.75656 16.816 3.05026 16.382 2.61619C15.9479 2.18212 15.2416 2.18216 14.8075 2.61619L12.7083 4.71543C12.2743 5.1495 12.2743 5.8558 12.7083 6.28987C12.9254 6.50688 13.2105 6.61539 13.4956 6.61535ZM13.2332 5.24019L15.3324 3.14099C15.4047 3.06862 15.4997 3.03248 15.5948 3.03248C15.6898 3.03248 15.7848 3.06866 15.8571 3.14099C16.0018 3.28568 16.0018 3.5211 15.8571 3.66583L13.7579 5.76503C13.6878 5.83513 13.5947 5.87372 13.4955 5.87372C13.3964 5.87372 13.3032 5.83513 13.2332 5.76503C13.0885 5.6203 13.0885 5.38488 13.2332 5.24019Z" fill="black"/>
<path d="M4.45324 10.8359C4.65819 10.8359 4.82433 10.6697 4.82433 10.4648C4.82433 10.2598 4.65819 10.0937 4.45324 10.0937H4.45298C4.24802 10.0937 4.08203 10.2598 4.08203 10.4648C4.08203 10.6697 4.24828 10.8359 4.45324 10.8359Z" fill="black"/>
</g>
<defs>
<clipPath id="clip0_3304_560">
<rect width="19" height="19" fill="white"/>
</clipPath>
</defs>
</svg>
