<svg width="16" height="16" viewBox="0 0 16 16" fill="none" xmlns="http://www.w3.org/2000/svg">
<path d="M5.95508 6.61771L8.11115 8.2351C8.24472 8.33528 8.41123 8.38126 8.57728 8.36383C8.74334 8.3464 8.89667 8.26685 9.00653 8.14112L13.2346 3.30883" stroke="#10992D" stroke-width="1.32355" stroke-linecap="round"/>
<path d="M13.8964 7.94127C13.8964 9.18576 13.5066 10.399 12.7817 11.4106C12.0568 12.4222 11.0333 13.1813 9.85484 13.5813C8.67639 13.9813 7.40224 14.0022 6.21135 13.6409C5.02045 13.2796 3.97264 12.5544 3.21506 11.567C2.45749 10.5797 2.02823 9.37985 1.98756 8.13603C1.94689 6.8922 2.29685 5.66688 2.98831 4.63216C3.67976 3.59744 4.67796 2.8053 5.84271 2.367C7.00746 1.9287 8.28025 1.86626 9.48231 2.18844" stroke="#10992D" stroke-width="1.32355" stroke-linecap="round"/>
</svg>
