<svg width="26" height="26" viewBox="0 0 26 26" fill="none" xmlns="http://www.w3.org/2000/svg">
<g id="Group 1000004656">
<g id="Mask group">
<mask id="mask0_183_2349" style="mask-type:alpha" maskUnits="userSpaceOnUse" x="2" y="3" width="22" height="23">
<path id="Vector" d="M5.29456 19.1807L9.95651 18.2858C10.3818 17.3867 10.3818 16.9959 10.3818 16.4917C9.95651 16.0422 9.10997 15.5968 9.10997 15.1473C8.68471 13.8028 8.68471 12.9079 8.68471 12.9079C8.46612 12.5718 7.83817 12.013 7.83817 11.1138C7.83817 10.2147 8.68471 9.3198 8.68471 8.87444C8.68471 5.28637 10.4136 3.94189 12.9254 3.94189C15.3299 3.94189 17.166 5.28637 17.166 8.87024C17.166 9.3198 18.0126 10.2147 18.0126 11.1096C18.0126 12.0046 17.4085 12.597 17.166 12.9037C17.166 12.9037 17.166 13.7986 16.7408 15.1431C16.7408 15.5926 15.8942 16.038 15.469 16.4875C15.469 16.9371 15.469 17.3825 15.8942 18.2816L20.5562 19.1807C22.2532 19.6261 23.0998 22.7646 23.0998 25.4535H2.75096C2.75096 22.7646 3.5975 19.6261 5.29456 19.1807Z" fill="#959595"/>
</mask>
<g mask="url(#mask0_183_2349)">
<ellipse id="Ellipse 21" cx="12.9254" cy="11.5342" rx="12.8676" ry="13.6029" fill="black"/>
</g>
</g>
<circle id="Ellipse 22" cx="12.9254" cy="12.6628" r="11.6757" stroke="black" stroke-width="1.64854"/>
</g>
</svg>
