<svg width="31" height="31" viewBox="0 0 31 31" fill="none" xmlns="http://www.w3.org/2000/svg">
<path fill-rule="evenodd" clip-rule="evenodd" d="M15.4987 30.9167C8.23128 30.9167 4.59757 30.9167 2.33903 28.6581C0.0820313 26.4027 0.0820313 22.7674 0.0820313 15.5C0.0820313 8.23258 0.0820313 4.59888 2.33903 2.34033C4.59911 0.0833333 8.23128 0.0833333 15.4987 0.0833333C22.7661 0.0833333 26.3998 0.0833333 28.6568 2.34033C30.9154 4.60042 30.9154 8.23258 30.9154 15.5C30.9154 22.7674 30.9154 26.4011 28.6568 28.6581C26.4014 30.9167 22.7661 30.9167 15.4987 30.9167ZM22.0693 8.52704C22.283 8.30742 22.5752 8.18162 22.8816 8.17728C23.188 8.17295 23.4836 8.29043 23.7034 8.50392L25.5534 10.303C25.6642 10.4108 25.7522 10.5396 25.8123 10.6819C25.8724 10.8243 25.9033 10.9772 25.9033 11.1317C25.9033 11.2862 25.8724 11.4391 25.8123 11.5814C25.7522 11.7238 25.6642 11.8526 25.5534 11.9603L23.7034 13.7595C23.4985 13.9573 23.2276 14.0725 22.9429 14.083C22.6582 14.0935 22.3797 13.9984 22.1607 13.8162C21.9417 13.6339 21.7978 13.3772 21.7564 13.0953C21.7151 12.8134 21.7793 12.5262 21.9367 12.2887H21.4156C20.6278 12.2887 20.1144 12.2887 19.7198 12.3273C19.3467 12.3627 19.1648 12.4228 19.0353 12.4953C18.9058 12.5662 18.7639 12.6803 18.545 12.9686C18.3107 13.2769 18.0471 13.6993 17.6416 14.3592L15.2983 18.1563C14.9252 18.7575 14.6045 19.2802 14.2931 19.6887C13.957 20.1296 13.5839 20.5089 13.0767 20.7879C12.5711 21.0654 12.05 21.1795 11.4965 21.2319C10.9785 21.2813 10.3557 21.2813 9.63112 21.2813H6.2487C5.94204 21.2813 5.64794 21.1594 5.43111 20.9426C5.21427 20.7258 5.09245 20.4317 5.09245 20.125C5.09245 19.8183 5.21427 19.5242 5.43111 19.3074C5.64794 19.0906 5.94204 18.9688 6.2487 18.9688H9.58178C10.3696 18.9688 10.8829 18.9688 11.2776 18.9302C11.6522 18.8948 11.8326 18.8346 11.9621 18.7606C12.0916 18.6913 12.2334 18.5756 12.4524 18.2889C12.6867 17.9805 12.9503 17.5566 13.3558 16.8983L15.6991 13.0996C16.0722 12.4984 16.3929 11.9773 16.7043 11.5672C17.0404 11.1278 17.4134 10.7486 17.9207 10.4695C18.4263 10.192 18.9474 10.0764 19.5009 10.024C20.0189 9.97621 20.6417 9.97621 21.3663 9.97621H21.9367C21.7895 9.75601 21.7223 9.49194 21.7464 9.22815C21.7706 8.96437 21.8845 8.71686 22.0693 8.52704ZM11.4672 12.0621C11.3362 12.0359 11.182 12.0313 10.5669 12.0313H6.2487C5.94204 12.0313 5.64794 11.9094 5.43111 11.6926C5.21427 11.4758 5.09245 11.1817 5.09245 10.875C5.09245 10.5683 5.21427 10.2742 5.43111 10.0574C5.64794 9.84057 5.94204 9.71875 6.2487 9.71875H10.6548C11.1373 9.71875 11.5258 9.71875 11.8974 9.78813C12.7288 9.94398 13.4881 10.3628 14.0634 10.9829C14.3209 11.2604 14.5244 11.5903 14.771 11.9896L14.8173 12.0667C14.9006 12.1959 14.9574 12.3405 14.9842 12.4919C15.0111 12.6433 15.0074 12.7985 14.9735 12.9485C14.9396 13.0985 14.8761 13.2402 14.7868 13.3653C14.6975 13.4905 14.5841 13.5966 14.4532 13.6774C14.3224 13.7582 14.1768 13.812 14.0249 13.8359C13.873 13.8597 13.7178 13.853 13.5686 13.8161C13.4193 13.7793 13.2788 13.713 13.1555 13.6212C13.0321 13.5294 12.9283 13.4139 12.8501 13.2815C12.5325 12.7666 12.4508 12.6448 12.3676 12.5539C12.1283 12.297 11.8126 12.124 11.4672 12.0605M16.5563 17.0864C16.8172 16.9253 17.1313 16.8745 17.4297 16.945C17.728 17.0156 17.9861 17.2017 18.1473 17.4625C18.4649 17.9759 18.5466 18.0977 18.6298 18.1887C18.8626 18.44 19.1771 18.6157 19.5302 18.682C19.6612 18.7067 19.8169 18.7128 20.4305 18.7128H21.9367C21.7761 18.4753 21.7095 18.1866 21.7498 17.9028C21.7901 17.6189 21.9345 17.3602 22.1548 17.1767C22.3751 16.9933 22.6557 16.8982 22.9422 16.91C23.2286 16.9218 23.5005 17.0396 23.705 17.2405L25.555 19.0397C25.6657 19.1474 25.7537 19.2763 25.8138 19.4186C25.8739 19.5609 25.9049 19.7138 25.9049 19.8683C25.9049 20.0228 25.8739 20.1757 25.8138 20.3181C25.7537 20.4604 25.6657 20.5892 25.555 20.697L23.705 22.4961C23.5005 22.697 23.2286 22.8148 22.9422 22.8266C22.6557 22.8384 22.3751 22.7434 22.1548 22.5599C21.9345 22.3765 21.7901 22.1177 21.7498 21.8339C21.7095 21.55 21.7761 21.2613 21.9367 21.0238H20.3426C19.8601 21.0238 19.4716 21.0238 19.1 20.9544C18.2686 20.7986 17.5093 20.3797 16.934 19.7596C16.6765 19.4821 16.473 19.1522 16.2264 18.7529L16.1801 18.6758C16.0191 18.415 15.9682 18.1008 16.0388 17.8024C16.1093 17.5041 16.2955 17.246 16.5563 17.0848" fill="black"/>
</svg>
