<svg width="27" height="27" viewBox="0 0 27 27" fill="none" xmlns="http://www.w3.org/2000/svg">
<path d="M1 13.5C1 20.4037 6.59625 26 13.5 26C20.4037 26 26 20.4037 26 13.5C26 6.59625 20.4037 1 13.5 1C6.59625 1 1 6.59625 1 13.5Z" stroke="black" stroke-width="1.875" stroke-linecap="round" stroke-linejoin="round"/>
<path d="M14.7496 1.06152C14.7496 1.06152 18.4996 5.99902 18.4996 13.499C18.4996 20.999 14.7496 25.9365 14.7496 25.9365M12.2496 25.9365C12.2496 25.9365 8.49961 20.999 8.49961 13.499C8.49961 5.99902 12.2496 1.06152 12.2496 1.06152M1.78711 17.874H25.2121M1.78711 9.12402H25.2121" stroke="black" stroke-width="1.875" stroke-linecap="round" stroke-linejoin="round"/>
</svg>
