<svg width="61" height="54" viewBox="0 0 61 54" fill="none" xmlns="http://www.w3.org/2000/svg">
<path opacity="0.5" d="M53.7671 7.00342H45.6984L41.7311 1.05381C41.5185 0.735232 41.2307 0.473995 40.893 0.293244C40.5554 0.112493 40.1784 0.0178081 39.7954 0.0175781H21.1665C20.7835 0.0178081 20.4065 0.112493 20.0689 0.293244C19.7312 0.473995 19.4434 0.735232 19.2308 1.05381L15.2606 7.00342H7.19482C5.34206 7.00342 3.56519 7.73942 2.25509 9.04952C0.944991 10.3596 0.208984 12.1365 0.208984 13.9893V46.5898C0.208984 48.4426 0.944991 50.2195 2.25509 51.5296C3.56519 52.8397 5.34206 53.5757 7.19482 53.5757H53.7671C55.6199 53.5757 57.3967 52.8397 58.7068 51.5296C60.0169 50.2195 60.7529 48.4426 60.7529 46.5898V13.9893C60.7529 12.1365 60.0169 10.3596 58.7068 9.04952C57.3967 7.73942 55.6199 7.00342 53.7671 7.00342ZM56.0957 46.5898C56.0957 47.2074 55.8504 47.7997 55.4137 48.2364C54.977 48.6731 54.3847 48.9185 53.7671 48.9185H7.19482C6.57724 48.9185 5.98495 48.6731 5.54825 48.2364C5.11155 47.7997 4.86621 47.2074 4.86621 46.5898V13.9893C4.86621 13.3717 5.11155 12.7794 5.54825 12.3427C5.98495 11.906 6.57724 11.6606 7.19482 11.6606H16.5093C16.8927 11.6609 17.2703 11.5664 17.6085 11.3857C17.9467 11.2049 18.235 10.9434 18.4478 10.6244L22.4123 4.6748H38.5467L42.5141 10.6244C42.7269 10.9434 43.0152 11.2049 43.3534 11.3857C43.6916 11.5664 44.0692 11.6609 44.4526 11.6606H53.7671C54.3847 11.6606 54.977 11.906 55.4137 12.3427C55.8504 12.7794 56.0957 13.3717 56.0957 13.9893V46.5898ZM30.481 16.3179C27.9479 16.3179 25.4717 17.069 23.3656 18.4763C21.2594 19.8836 19.6178 21.8838 18.6485 24.2241C17.6791 26.5643 17.4255 29.1395 17.9197 31.6238C18.4139 34.1082 19.6336 36.3903 21.4248 38.1814C23.2159 39.9726 25.498 41.1924 27.9824 41.6865C30.4667 42.1807 33.0419 41.9271 35.3821 40.9577C37.7224 39.9884 39.7226 38.3468 41.1299 36.2406C42.5372 34.1345 43.2883 31.6583 43.2883 29.1252C43.2845 25.7297 41.9339 22.4743 39.5329 20.0733C37.1319 17.6723 33.8765 16.3217 30.481 16.3179ZM30.481 37.2754C28.869 37.2754 27.2933 36.7974 25.953 35.9018C24.6127 35.0063 23.5681 33.7334 22.9512 32.2442C22.3343 30.7549 22.1729 29.1162 22.4874 27.5352C22.8019 25.9543 23.5781 24.502 24.7179 23.3622C25.8578 22.2224 27.31 21.4462 28.8909 21.1317C30.4719 20.8172 32.1106 20.9786 33.5999 21.5955C35.0891 22.2124 36.362 23.257 37.2576 24.5973C38.1531 25.9375 38.6311 27.5133 38.6311 29.1252C38.6311 31.2868 37.7724 33.3598 36.244 34.8883C34.7155 36.4167 32.6425 37.2754 30.481 37.2754Z" fill="black"/>
</svg>
