<svg width="23" height="25" viewBox="0 0 23 25" fill="none" xmlns="http://www.w3.org/2000/svg">
<path d="M15.7372 1.75166C14.6613 0.621666 13.1586 -0.000610352 11.5 -0.000610352C9.83252 -0.000610352 8.32485 0.617901 7.25395 1.7409C6.17143 2.87627 5.644 4.41932 5.76784 6.08554C6.01331 9.37279 8.5847 12.0469 11.5 12.0469C14.4152 12.0469 16.9822 9.37333 17.2316 6.08662C17.3571 4.43546 16.8263 2.89564 15.7372 1.75166ZM21.2305 24.0944H1.76949C1.51477 24.0977 1.26251 24.0456 1.03106 23.9421C0.799621 23.8385 0.594817 23.6861 0.431553 23.4958C0.0721891 23.0779 -0.0726624 22.5073 0.034594 21.9302C0.501215 19.412 1.95747 17.2967 4.24634 15.8118C6.27979 14.4935 8.85561 13.768 11.5 13.768C14.1443 13.768 16.7202 14.4941 18.7536 15.8118C21.0425 17.2962 22.4987 19.4115 22.9654 21.9296C23.0726 22.5067 22.9278 23.0774 22.5684 23.4953C22.4052 23.6856 22.2004 23.8382 21.969 23.9418C21.7375 24.0455 21.4852 24.0976 21.2305 24.0944Z" fill="black"/>
</svg>
