<svg width="44" height="41" viewBox="0 0 44 41" fill="none" xmlns="http://www.w3.org/2000/svg">
<g id="Group 1000004667">
<rect id="Rectangle 1114" width="44" height="41" rx="5.39474" fill="#333333"/>
<g id="Group 1000004962">
<path id="Vector" d="M12 25.6671V29H15.7495L26.808 19.1702L23.0585 15.8373L12 25.6671ZM29.7076 16.5928C29.8003 16.5106 29.8738 16.4129 29.924 16.3054C29.9742 16.1979 30 16.0826 30 15.9662C30 15.8498 29.9742 15.7346 29.924 15.627C29.8738 15.5195 29.8003 15.4219 29.7076 15.3396L27.3679 13.2599C27.2754 13.1775 27.1655 13.1122 27.0446 13.0676C26.9236 13.023 26.794 13 26.663 13C26.5321 13 26.4024 13.023 26.2814 13.0676C26.1605 13.1122 26.0506 13.1775 25.9581 13.2599L24.1284 14.8864L27.8778 18.2192L29.7076 16.5928Z" fill="white"/>
</g>
</g>
</svg>
