<svg width="26" height="30" viewBox="0 0 26 30" fill="none" xmlns="http://www.w3.org/2000/svg">
<path id="Vector" d="M13 0C11.0298 0 9.14033 0.790176 7.74721 2.1967C6.35408 3.60322 5.57143 5.51088 5.57143 7.5C5.57143 9.48912 6.35408 11.3968 7.74721 12.8033C9.14033 14.2098 11.0298 15 13 15C14.9702 15 16.8597 14.2098 18.2528 12.8033C19.6459 11.3968 20.4286 9.48912 20.4286 7.5C20.4286 5.51088 19.6459 3.60322 18.2528 2.1967C16.8597 0.790176 14.9702 0 13 0ZM3.731 16.875C3.2419 16.873 2.75722 16.9686 2.30476 17.1561C1.8523 17.3436 1.44096 17.6195 1.09434 17.9679C0.747712 18.3163 0.472615 18.7304 0.284823 19.1863C0.0970318 19.6423 0.000240522 20.1312 0 20.625C0 23.7956 1.547 26.1863 3.965 27.7444C6.34586 29.2763 9.555 30 13 30C16.445 30 19.6541 29.2763 22.035 27.7444C24.453 26.1881 26 23.7938 26 20.625C26 19.6304 25.6087 18.6766 24.9121 17.9734C24.2155 17.2701 23.2708 16.875 22.2857 16.875H3.731Z" fill="#C2C2C2"/>
</svg>
