<svg width="16" height="16" viewBox="0 0 16 16" fill="none" xmlns="http://www.w3.org/2000/svg">
<path d="M0 0.882667C0 0.395556 0.395556 0 0.882667 0H15.1173C15.6044 0 16 0.395556 16 0.882667V15.1173C15.9998 15.3514 15.9067 15.5757 15.7412 15.7412C15.5757 15.9067 15.3514 15.9998 15.1173 16H0.882667C0.648569 16 0.424059 15.907 0.258527 15.7415C0.092995 15.5759 0 15.3514 0 15.1173V0.882667ZM6.77511 4.81333C6.72161 4.77764 6.65944 4.75713 6.59521 4.75397C6.53097 4.75082 6.46709 4.76515 6.41035 4.79543C6.35362 4.82572 6.30616 4.87082 6.27303 4.92594C6.2399 4.98106 6.22234 5.04413 6.22222 5.10844V10.8916C6.22234 10.9559 6.2399 11.0189 6.27303 11.0741C6.30616 11.1292 6.35362 11.1743 6.41035 11.2046C6.46709 11.2349 6.53097 11.2492 6.59521 11.246C6.65944 11.2429 6.72161 11.2224 6.77511 11.1867L11.112 8.296C11.1608 8.26354 11.2008 8.21954 11.2284 8.1679C11.2561 8.11626 11.2706 8.05858 11.2706 8C11.2706 7.94142 11.2561 7.88374 11.2284 7.8321C11.2008 7.78046 11.1608 7.73646 11.112 7.704L6.77511 4.81333Z" fill="black"/>
</svg>
