<svg width="46" height="41" viewBox="0 0 46 41" fill="none" xmlns="http://www.w3.org/2000/svg">
<rect opacity="0.2" x="0.5" y="0.5" width="44.4324" height="40" rx="1.71622" fill="#70BA92" stroke="#534A4A"/>
<path d="M22.5 23.625C24.2259 23.625 25.625 22.2259 25.625 20.5C25.625 18.7741 24.2259 17.375 22.5 17.375C20.7741 17.375 19.375 18.7741 19.375 20.5C19.375 22.2259 20.7741 23.625 22.5 23.625Z" fill="#7CA240"/>
<path d="M34.172 20.2344C33.2532 17.8575 31.658 15.802 29.5836 14.3219C27.5092 12.8418 25.0466 12.002 22.5002 11.9062C19.9537 12.002 17.4911 12.8418 15.4167 14.3219C13.3424 15.802 11.7472 17.8575 10.8283 20.2344C10.7662 20.406 10.7662 20.594 10.8283 20.7656C11.7472 23.1425 13.3424 25.198 15.4167 26.6781C17.4911 28.1582 19.9537 28.998 22.5002 29.0938C25.0466 28.998 27.5092 28.1582 29.5836 26.6781C31.658 25.198 33.2532 23.1425 34.172 20.7656C34.2341 20.594 34.2341 20.406 34.172 20.2344ZM22.5002 25.5781C21.4958 25.5781 20.514 25.2803 19.6789 24.7223C18.8438 24.1643 18.1929 23.3712 17.8086 22.4433C17.4242 21.5154 17.3237 20.4944 17.5196 19.5093C17.7155 18.5242 18.1992 17.6194 18.9094 16.9092C19.6196 16.199 20.5244 15.7154 21.5095 15.5194C22.4945 15.3235 23.5156 15.4241 24.4435 15.8084C25.3714 16.1928 26.1645 16.8437 26.7225 17.6787C27.2805 18.5138 27.5783 19.4956 27.5783 20.5C27.5762 21.8462 27.0405 23.1366 26.0886 24.0885C25.1368 25.0404 23.8463 25.5761 22.5002 25.5781Z" fill="#7CA240"/>
</svg>
