<svg width="23" height="23" viewBox="0 0 23 23" fill="none" xmlns="http://www.w3.org/2000/svg">
<g id="carbon:view-filled">
<g id="Group 1000004739">
<path id="Vector" d="M11.5 14.375C13.0878 14.375 14.375 13.0878 14.375 11.5C14.375 9.91218 13.0878 8.625 11.5 8.625C9.91218 8.625 8.625 9.91218 8.625 11.5C8.625 13.0878 9.91218 14.375 11.5 14.375Z" fill="black"/>
<path id="Vector_2" d="M22.2383 11.2556C21.3929 9.06893 19.9254 7.17788 18.0169 5.81619C16.1085 4.45449 13.8429 3.68185 11.5002 3.59375C9.15743 3.68185 6.89184 4.45449 4.98342 5.81619C3.07501 7.17788 1.60742 9.06893 0.762058 11.2556C0.704965 11.4135 0.704965 11.5865 0.762058 11.7444C1.60742 13.9311 3.07501 15.8221 4.98342 17.1838C6.89184 18.5455 9.15743 19.3182 11.5002 19.4062C13.8429 19.3182 16.1085 18.5455 18.0169 17.1838C19.9254 15.8221 21.3929 13.9311 22.2383 11.7444C22.2954 11.5865 22.2954 11.4135 22.2383 11.2556ZM11.5002 16.1719C10.5762 16.1719 9.67291 15.8979 8.90463 15.3845C8.13634 14.8712 7.53754 14.1415 7.18393 13.2878C6.83033 12.4342 6.73781 11.4948 6.91808 10.5886C7.09834 9.68231 7.54329 8.84986 8.19667 8.19649C8.85004 7.54311 9.68249 7.09816 10.5887 6.91789C11.495 6.73763 12.4344 6.83015 13.288 7.18375C14.1417 7.53735 14.8714 8.13616 15.3847 8.90445C15.8981 9.67273 16.1721 10.576 16.1721 11.5C16.1702 12.7385 15.6773 13.9257 14.8016 14.8014C13.9259 15.6771 12.7387 16.17 11.5002 16.1719Z" fill="black"/>
</g>
</g>
</svg>
