<svg width="14" height="14" viewBox="0 0 14 14" fill="none" xmlns="http://www.w3.org/2000/svg">
<path d="M12.7848 6.8235C12.7848 8.0692 12.3947 9.2836 11.6691 10.2962C10.9435 11.3087 9.91897 12.0686 8.73939 12.469C7.55981 12.8694 6.28443 12.8902 5.09238 12.5286C3.90034 12.167 2.85151 11.4411 2.09321 10.4528C1.3349 9.46447 0.905224 8.26347 0.864514 7.01845C0.823804 5.77342 1.17411 4.54692 1.86623 3.5112C2.55835 2.47548 3.55751 1.68258 4.72339 1.24385C5.88927 0.805128 7.16328 0.742625 8.36651 1.06512" stroke="#A20B0B" stroke-width="1.32489" stroke-linecap="round"/>
<path d="M5.4375 9.24335C5.50477 9.24212 5.57137 9.22687 5.63281 9.1994C5.69368 9.17215 5.74836 9.1329 5.79395 9.08417L7.55957 7.31366L9.32617 9.08417L9.40137 9.14862C9.42854 9.16743 9.45779 9.18332 9.48828 9.19647C9.54948 9.22281 9.61601 9.23694 9.68262 9.23749C9.74915 9.23801 9.81539 9.2247 9.87695 9.1994C9.93831 9.17414 9.99411 9.13703 10.041 9.09003C10.0881 9.04278 10.1252 8.98581 10.1504 8.92401C10.1755 8.86228 10.1881 8.79634 10.1875 8.72968C10.1869 8.66293 10.1738 8.59666 10.1475 8.53534C10.1212 8.47411 10.083 8.41857 10.0352 8.37225L10.0342 8.37323L8.26953 6.60175L10.0352 4.82928L10.0361 4.82733C10.1245 4.73202 10.1732 4.60588 10.1709 4.47577C10.1685 4.34567 10.1152 4.22115 10.0234 4.12909C9.93161 4.03717 9.80752 3.9849 9.67773 3.9826C9.54787 3.98038 9.42213 4.02859 9.32715 4.11737L9.32617 4.11835L7.55957 5.89081L5.79297 4.11932L5.79199 4.11737C5.69694 4.02852 5.57039 3.9803 5.44043 3.9826C5.31059 3.98499 5.18651 4.038 5.09473 4.13007C5.00295 4.2222 4.95053 4.34658 4.94824 4.47675C4.94596 4.60697 4.99445 4.73298 5.08301 4.82831L5.08398 4.82928L6.84961 6.60175L5.08496 8.37421V8.37518C5.03682 8.42072 4.99769 8.47475 4.9707 8.53534C4.94331 8.59701 4.92795 8.66413 4.92676 8.73163C4.9256 8.79906 4.93868 8.86635 4.96387 8.92889C4.98907 8.99133 5.02672 9.04823 5.07422 9.09589C5.12168 9.14343 5.17804 9.18098 5.24023 9.20624C5.30269 9.23154 5.37015 9.24454 5.4375 9.24335Z" fill="#A20B0B" stroke="#A20B0B" stroke-width="0.103171"/>
</svg>
